<?xml version="1.0"?>
<svg xmlns="http://www.w3.org/2000/svg" version="1.1" width="600px" height="600px" viewBox="0 0 200 200" style="overflow:hidden!important;">
  <defs id="SvgjsDefs1007">
    <radialGradient id="SvgjsRadialGradient2773" cx="100" cy="113" r="40" gradientUnits="userSpaceOnUse" class="svga-on-canvas-facehighlight-gradient-single-0">
      <stop id="SvgjsStop2774" stop-opacity="0.5" stop-color="#b88e7b" offset="0"/>
      <stop id="SvgjsStop2775" stop-opacity="0" stop-color="#a97760" offset="0.9"/>
    </radialGradient>
    <radialGradient id="SvgjsRadialGradient2777" cx="100" cy="57" r="36" gradientUnits="userSpaceOnUse" class="svga-on-canvas-facehighlight-gradient-single-1">
      <stop id="SvgjsStop2778" stop-opacity="0.5" stop-color="#b88e7b" offset="0"/>
      <stop id="SvgjsStop2779" stop-opacity="0" stop-color="#a97760" offset="0.9"/>
    </radialGradient>
    <linearGradient id="SvgjsLinearGradient2937" x1="99.98" y1="171.27" x2="99.98" y2="136.351" gradientUnits="userSpaceOnUse" class="svga-on-canvas-chinshadow-gradient-single-0">
      <stop id="SvgjsStop2938" stop-opacity="0.8" stop-color="#9a6248" offset="0"/>
      <stop id="SvgjsStop2939" stop-opacity="1" stop-color="#7b3d21" offset="0.7"/>
    </linearGradient>
    <linearGradient id="SvgjsLinearGradient2989" x1="100" y1="141" x2="100" y2="138" gradientUnits="userSpaceOnUse" class="svga-on-canvas-mouth-gradient-single-0">
      <stop id="SvgjsStop2990" stop-opacity="1" stop-color="#a16c54" offset="0.1"/>
      <stop id="SvgjsStop2991" stop-opacity="1" stop-color="#9a6248" offset="1"/>
    </linearGradient>
    <radialGradient id="SvgjsRadialGradient3151" cx="129.05" cy="85.956" r="15.117" gradientTransform="matrix(-0.9945 0.1042 0.1042 0.9945 192.8274 -12.4637)" gradientUnits="userSpaceOnUse" class="svga-on-canvas-eyesback-gradient-left-0">
      <stop id="SvgjsStop3152" stop-opacity="1" stop-color="#ffffff" offset="0"/>
      <stop id="SvgjsStop3153" stop-opacity="1" stop-color="#fcfdfd" offset="0.316"/>
      <stop id="SvgjsStop3154" stop-opacity="1" stop-color="#f4f7f8" offset="0.505"/>
      <stop id="SvgjsStop3155" stop-opacity="1" stop-color="#e5ecef" offset="0.661"/>
      <stop id="SvgjsStop3156" stop-opacity="1" stop-color="#d8e2e7" offset="0.76"/>
    </radialGradient>
    <radialGradient id="SvgjsRadialGradient3158" cx="129.049" cy="85.956" r="15.117" gradientTransform="matrix(0.9945 0.1042 -0.1042 0.9945 7.1735 -12.4637)" gradientUnits="userSpaceOnUse" class="svga-on-canvas-eyesback-gradient-right-0">
      <stop id="SvgjsStop3159" stop-opacity="1" stop-color="#ffffff" offset="0"/>
      <stop id="SvgjsStop3160" stop-opacity="1" stop-color="#fcfdfd" offset="0.316"/>
      <stop id="SvgjsStop3161" stop-opacity="1" stop-color="#f4f7f8" offset="0.505"/>
      <stop id="SvgjsStop3162" stop-opacity="1" stop-color="#e5ecef" offset="0.661"/>
      <stop id="SvgjsStop3163" stop-opacity="1" stop-color="#d8e2e7" offset="0.76"/>
    </radialGradient>
    <radialGradient id="SvgjsRadialGradient3165" cx="129.05" cy="85.956" r="15.117" gradientTransform="matrix(-0.9945 0.1042 0.1042 0.9945 192.8274 -12.4637)" gradientUnits="userSpaceOnUse" class="svga-on-canvas-eyesfront-gradient-left-0">
      <stop id="SvgjsStop3166" stop-opacity="1" stop-color="#ffffff" offset="0"/>
      <stop id="SvgjsStop3167" stop-opacity="1" stop-color="#fcfdfd" offset="0.316"/>
      <stop id="SvgjsStop3168" stop-opacity="1" stop-color="#f4f7f8" offset="0.505"/>
      <stop id="SvgjsStop3169" stop-opacity="1" stop-color="#e5ecef" offset="0.661"/>
      <stop id="SvgjsStop3170" stop-opacity="1" stop-color="#d8e2e7" offset="0.76"/>
    </radialGradient>
    <radialGradient id="SvgjsRadialGradient3174" cx="121.786" cy="84.496" fx="133.039" fy="84.527" r="16.003" gradientTransform="matrix(0.9998 0.0208 0.0166 -0.7998 -44.9524 149.5433)" gradientUnits="userSpaceOnUse" class="svga-on-canvas-eyesfront-gradient-left-3">
      <stop id="SvgjsStop3175" stop-opacity="1" stop-color="#9a6248" offset="0"/>
      <stop id="SvgjsStop3176" stop-opacity="0.3" stop-color="#9a6248" offset="0.7"/>
      <stop id="SvgjsStop3177" stop-opacity="0" stop-color="#a97760" offset="1"/>
    </radialGradient>
    <radialGradient id="SvgjsRadialGradient3179" cx="69.124" cy="107.529" r="29.525" gradientTransform="matrix(1.0336 0 0 1.0336 -1.6792 1.7282)" gradientUnits="userSpaceOnUse" class="svga-on-canvas-eyesfront-gradient-left-4">
      <stop id="SvgjsStop3180" stop-opacity="0" stop-color="#000000" offset="0.95"/>
      <stop id="SvgjsStop3181" stop-opacity="0.3" stop-color="#000000" offset="1"/>
    </radialGradient>
    <radialGradient id="SvgjsRadialGradient3185" cx="129.049" cy="85.956" r="15.117" gradientTransform="matrix(0.9945 0.1042 -0.1042 0.9945 7.1735 -12.4637)" gradientUnits="userSpaceOnUse" class="svga-on-canvas-eyesfront-gradient-right-0">
      <stop id="SvgjsStop3186" stop-opacity="1" stop-color="#ffffff" offset="0"/>
      <stop id="SvgjsStop3187" stop-opacity="1" stop-color="#fcfdfd" offset="0.316"/>
      <stop id="SvgjsStop3188" stop-opacity="1" stop-color="#f4f7f8" offset="0.505"/>
      <stop id="SvgjsStop3189" stop-opacity="1" stop-color="#e5ecef" offset="0.661"/>
      <stop id="SvgjsStop3190" stop-opacity="1" stop-color="#d8e2e7" offset="0.76"/>
    </radialGradient>
    <radialGradient id="SvgjsRadialGradient3194" cx="121.786" cy="84.496" fx="133.039" fy="84.527" r="16.003" gradientTransform="matrix(-0.9998 0.0208 -0.0166 -0.7998 244.9525 149.5433)" gradientUnits="userSpaceOnUse" class="svga-on-canvas-eyesfront-gradient-right-3">
      <stop id="SvgjsStop3195" stop-opacity="1" stop-color="#9a6248" offset="0"/>
      <stop id="SvgjsStop3196" stop-opacity="0.3" stop-color="#9a6248" offset="0.7"/>
      <stop id="SvgjsStop3197" stop-opacity="0" stop-color="#a97760" offset="1"/>
    </radialGradient>
    <radialGradient id="SvgjsRadialGradient3199" cx="69.124" cy="107.529" r="29.525" gradientTransform="matrix(-1.0336 0 0 1.0336 201.6792 1.7282)" gradientUnits="userSpaceOnUse" class="svga-on-canvas-eyesfront-gradient-right-4">
      <stop id="SvgjsStop3200" stop-opacity="0" stop-color="#000000" offset="0.95"/>
      <stop id="SvgjsStop3201" stop-opacity="0.3" stop-color="#000000" offset="1"/>
    </radialGradient>
    <radialGradient id="SvgjsRadialGradient3206" cx="-558.588" cy="-490.918" r="84.646" gradientTransform="matrix(0.096 -0.0248 0.0245 0.0961 140.5478 120.3577)" gradientUnits="userSpaceOnUse" class="svga-on-canvas-eyesiris-gradient-left-1">
      <stop id="SvgjsStop3207" stop-opacity="0.8" stop-color="#ffffff" offset="0"/>
      <stop id="SvgjsStop3208" stop-opacity="0" stop-color="#ffffff" offset="1"/>
    </radialGradient>
    <radialGradient id="SvgjsRadialGradient3210" cx="-565.337" cy="-492.691" r="84.644" gradientTransform="matrix(0.0991 8.856325e-004 -0.0011 0.0991 130.3774 136.3533)" gradientUnits="userSpaceOnUse" class="svga-on-canvas-eyesiris-gradient-left-2">
      <stop id="SvgjsStop3211" stop-opacity="0.8" stop-color="#ffffff" offset="0"/>
      <stop id="SvgjsStop3212" stop-opacity="0" stop-color="#ffffff" offset="1"/>
    </radialGradient>
    <linearGradient id="SvgjsLinearGradient3216" x1="122.283" y1="93.047" x2="123.61" y2="91.466" gradientTransform="matrix(1 0 0 1 -52 0)" gradientUnits="userSpaceOnUse" class="svga-on-canvas-eyesiris-gradient-left-5">
      <stop id="SvgjsStop3217" stop-opacity="1" stop-color="#ffffff" offset="0"/>
      <stop id="SvgjsStop3218" stop-opacity="0" stop-color="#ffffff" offset="1"/>
    </linearGradient>
    <linearGradient id="SvgjsLinearGradient3220" x1="127" y1="85" x2="125" y2="87" gradientTransform="matrix(1 0 0 1 -50 0)" gradientUnits="userSpaceOnUse" class="svga-on-canvas-eyesiris-gradient-left-6">
      <stop id="SvgjsStop3221" stop-opacity="1" stop-color="#ffffff" offset="0"/>
      <stop id="SvgjsStop3222" stop-opacity="0" stop-color="#ffffff" offset="1"/>
    </linearGradient>
    <linearGradient id="SvgjsLinearGradient3224" x1="130" y1="81" x2="126" y2="85" gradientTransform="matrix(1 0 0 1 -50 0)" gradientUnits="userSpaceOnUse" class="svga-on-canvas-eyesiris-gradient-left-7">
      <stop id="SvgjsStop3225" stop-opacity="1" stop-color="#ffffff" offset="0"/>
      <stop id="SvgjsStop3226" stop-opacity="0" stop-color="#ffffff" offset="1"/>
    </linearGradient>
    <radialGradient id="SvgjsRadialGradient3229" cx="-578.76" cy="-490.73" r="84.646" gradientTransform="matrix(0.096 -0.0248 0.0245 0.0961 192.4794 119.8404)" gradientUnits="userSpaceOnUse" class="svga-on-canvas-eyesiris-gradient-right-1">
      <stop id="SvgjsStop3230" stop-opacity="0.8" stop-color="#ffffff" offset="0"/>
      <stop id="SvgjsStop3231" stop-opacity="0" stop-color="#ffffff" offset="1"/>
    </radialGradient>
    <radialGradient id="SvgjsRadialGradient3233" cx="-584.778" cy="-487.329" r="84.644" gradientTransform="matrix(0.0991 8.856325e-004 -0.0011 0.0991 182.3104 135.839)" gradientUnits="userSpaceOnUse" class="svga-on-canvas-eyesiris-gradient-right-2">
      <stop id="SvgjsStop3234" stop-opacity="0.8" stop-color="#ffffff" offset="0"/>
      <stop id="SvgjsStop3235" stop-opacity="0" stop-color="#ffffff" offset="1"/>
    </radialGradient>
    <linearGradient id="SvgjsLinearGradient3239" x1="120.284" y1="93.047" x2="121.611" y2="91.467" gradientUnits="userSpaceOnUse" class="svga-on-canvas-eyesiris-gradient-right-5">
      <stop id="SvgjsStop3240" stop-opacity="1" stop-color="#ffffff" offset="0"/>
      <stop id="SvgjsStop3241" stop-opacity="0" stop-color="#ffffff" offset="1"/>
    </linearGradient>
    <linearGradient id="SvgjsLinearGradient3243" x1="127" y1="85" x2="125" y2="87" gradientUnits="userSpaceOnUse" class="svga-on-canvas-eyesiris-gradient-right-6">
      <stop id="SvgjsStop3244" stop-opacity="1" stop-color="#ffffff" offset="0"/>
      <stop id="SvgjsStop3245" stop-opacity="0" stop-color="#ffffff" offset="1"/>
    </linearGradient>
    <linearGradient id="SvgjsLinearGradient3247" x1="130" y1="81" x2="126" y2="85" gradientUnits="userSpaceOnUse" class="svga-on-canvas-eyesiris-gradient-right-7">
      <stop id="SvgjsStop3248" stop-opacity="1" stop-color="#ffffff" offset="0"/>
      <stop id="SvgjsStop3249" stop-opacity="0" stop-color="#ffffff" offset="1"/>
    </linearGradient>
  </defs>
  <g id="svga-group-wrapper">
    <g id="svga-group-backs-single"/>
    <g id="svga-group-humanwrap-move" transform="matrix(1,0,0,1,0,0)">
      <g id="svga-group-humanwrap" transform="matrix(0.8499995000000001,0,0,0.8499995000000001,15.00773473325728,17.082670219479553)">
        <g id="svga-group-hair-back-move" transform="matrix(0.9999999999999999,-1.7453293948976878e-9,1.7453293948976878e-9,0.9999999999999999,-2.6179939993653534e-7,1.7453297118663613e-7)">
          <g id="svga-group-hair-back" transform="matrix(1,0,0,1,0,0)">
            <path id="SvgjsPath3328" d="M151.582 41.064l-99.508-5.662c0 0-25.074 182.88-25.074 188.596 0 0 100.899 0.72 143.907 0C170.103 216.079 151.582 41.064 151.582 41.064z" fill="#0c080c" stroke-width="none" opacity="1"/>
            <path id="SvgjsPath3329" d="M121.782 135.105c13.064 28.75 2.538 26.965 3.854 39.638 0.37 2.831 1.156 5.593 1.473 7.734 0.276 1.688 0.51 6.446 0.179 2.23 -0.202-1.254-0.28-2.017-1.04-4.851 -0.344-1.307-0.754-2.708-1.045-4.21 -1.819-7.826 2.865-12.599 2.151-21.366C126.813 149.567 126.288 146.035 121.782 135.105zM132.482 168.094c2.539 10.408 2.397 12.716-0.303 26.76 -0.546 2.782-0.81 4.486-0.754 4.149 0.961-5.248 3.898-12.954 3.881-21.899 0.065-3.489-1.908-11.137-2.385-14.473 0.003 0.027-0.008-0.069 0.006 0.06 -0.813-11.382 4.859-19.403 3.833-35.282C137.411 146.244 128.74 153.279 132.482 168.094zM71.231 126.755c0.111 0.53 0.265 1.167 0.394 1.912 0.097 0.754 0.232 1.602 0.267 2.544 0.464 7.265-1.744 14.69-2.036 22.948 0.104 6.205 1.922 14.294 2.117 18.863 0.106 1.429 0.164 3.229 0.095 5.265 -0.04 2.033-0.224 4.304-0.414 6.67 -0.398 4.738-0.489 4.088-0.419 14.274C71.218 206.547 71.025 210 71.025 210c-0.014-0.4 0.309-2.794 0.541-6.272 0.59-8.505 0.051-8.82 1.468-19.564 0.98-7.612 0.878-11.056 0.42-14.893 0.005 0.053 0.006 0.061 0.007 0.069 -0.876-8.696-3.064-10.4-2.013-22.053 0.462-4.839 1.044-9.731 0.892-13.768 -0.044-2.018-0.33-3.802-0.624-5.236 -0.326-1.427-0.745-2.495-0.995-3.166C70.722 125.117 70.906 125.709 71.231 126.755zM60.831 146.786c0.124 7.726 0.465 10.479 0.262 13.756 -0.052 0.803-0.098 1.499-0.135 2.07 -0.599 9.997 3.298 9.694 3.779 32.334 0.022 2.299 0.128 4.404 0.075 6.16 -0.545 16.677 1.274-10.246 0.117-22.427 -0.744-5.906-2.082-7.601-2.082-14.944 -0.012 0.217-0.003 0.057-0.005 0.104 0-7.93 0.613 3.883-0.622-16.262 -0.711-10.197 4.434-18.809 3.499-30.833C66.187 128.385 60.798 136.771 60.831 146.786z" fill="#000000" stroke-width="none" opacity="1"/>
          </g>
        </g>
        <g id="svga-group-humanbody-single">
          <path id="SvgjsPath2780" d="M190.858 199.866c-6.008-10.158-13.474-11.973-19.628-13.936 -6.323-2.016-19.346-3.178-26.449-4.6 -6.86-1.373-23.153-5.789-23.339-13.488 -0.192-8.066 4.291-40.09 4.291-40.09H74.005c0 0 4.487 32.023 4.294 40.09 -0.184 7.699-16.48 12.115-23.341 13.488 -7.104 1.422-20.125 2.584-26.448 4.6 -6.156 1.963-13.624 3.777-19.632 13.936 -3.644 6.16-6.008 16.133-6.008 27.133h194C196.869 215.999 194.509 206.026 190.858 199.866z" fill="#a97760" stroke-width="none" opacity="1" stroke="none"/>
          <path id="SvgjsPath2781" d="M121.442 167.843c2.495 10.929 18.165 13.698 26.293 15.325 21.909 4.379 33.772 5.134 42.297 19.539 2.903 4.916 5.459 15.864 5.962 24.153 1.835 0.291 0.531-17.432-5.136-26.994 -9.742-16.472-29.089-15.135-46.077-18.535C137.921 179.958 121.628 175.542 121.442 167.843L121.442 167.843zM78.558 167.843c-0.186 7.699-16.479 12.115-23.339 13.488 -16.988 3.4-36.335 2.063-46.077 18.535 -5.667 9.563-6.971 27.285-5.136 26.994 0.503-8.289 3.059-19.237 5.962-24.153 8.524-14.405 20.388-15.16 42.297-19.539C60.393 181.541 76.063 178.771 78.558 167.843L78.558 167.843z" fill="#b88e7b" stroke-width="none" opacity="1" stroke="none"/>
          <path id="SvgjsPath2782" d="M51.206 189.513c0 0 28.641 0.299 33.473 1.885 2.314 0.758 8.372 5.633 8.372 5.633s-6.556-3.17-8.658-3.758C79.51 191.909 51.206 189.513 51.206 189.513zM99.795 199.999c2.053-0.041 7.887-3.799 7.887-3.799s-5.574 2.059-7.342 2.16c-1.491 0.086-6.366-1.238-6.366-1.238S98.112 200.032 99.795 199.999zM117.008 192.757c6.75-1.818 29.786-3.23 29.786-3.23s-23.791-0.516-30.51 1.725c-2.252 0.752-7.562 5.16-7.562 5.16S114.786 193.354 117.008 192.757z" fill="#9a6248" stroke-width="none" opacity="1" stroke="none"/>
          <path id="SvgjsPath2783" d="M190.858 199.866c-9.741-16.471-29.122-15.142-46.077-18.535 -6.86-1.373-23.153-5.789-23.339-13.488 -0.192-8.066 4.291-40.09 4.291-40.09H74.005c0 0 4.487 32.023 4.294 40.09 -0.184 7.699-16.48 12.115-23.341 13.488 -7.104 1.422-20.125 2.584-26.448 4.6 -6.156 1.963-13.624 3.777-19.632 13.936 -3.644 6.16-6.008 16.133-6.008 27.133h194C196.869 215.999 194.509 206.026 190.858 199.866z" fill="none" stroke="#7b3d21" stroke-width="1.5" opacity="1"/>
        </g>
        <g id="svga-group-chinshadow-single">
          <path id="SvgjsPath2936" d="M100.002 171.005c7.478 0 14.576-2.63 20.879-6.56 0.487-8.706 2.716-25.793 3.721-33.231 -14.77-1.574-34.756-1.565-49.463 0.027 1.001 7.405 3.205 24.29 3.711 33.034C85.222 168.3 92.418 171.005 100.002 171.005z" fill="url(#SvgjsLinearGradient2937)" opacity="1"/>
        </g>
        <g id="svga-group-clothes-single">
          <path id="SvgjsPath3352" d="M4.299 238.659c-0.18-1-2.264-16.415-2.47-22.946 -0.294-9.499 1.371-23.079 10.881-22.987 10.824-7.524 29.089-14.021 41.718-17.795 7.903-8.587 9.483-11.971 22.612-17.874l-0.01-0.127c1.513 10.484 2.967 15.62-8.844 19.862 -1.893 2.63-3.665 5.194-6.158 8.787 3.793 20.511 4.981 34.739 5.444 53.437 0 0 3.771 0.011 65.288-0.271 2.066-21.594-0.221-33.876 4.806-53.726 0 0-4.021-4.846-6.726-8.573 -11.595-4.517-9.139-11.206-8.146-19.353 10.072 4.714 13.179 8.309 21.653 17.281 6.702 1.904 13.776 3.962 20.646 6.653 9.097 3.563 20.648 10.538 21.648 11.366 3.7-0.107 5.789 1.931 7.347 5.283 5.044 10.821 3.85 26.385 2.034 41.358C178.207 239.065 55.08 241.174 4.299 238.659z" fill="#ffffff" stroke-width="none" opacity="1" stroke="none"/>
          <path id="SvgjsPath3353" d="M77.464 159.895c0.149 1.034 0.284 2.015 0.383 2.938 -0.204 0.257-15.968 22.574-16.084 22.742C65.661 176.392 71.143 166.878 77.464 159.895zM122.424 159.895c-0.148 1.034-0.172 2.015-0.271 2.938 0.203 0.257 15.799 21.719 15.914 21.887C133.938 176.165 128.746 166.878 122.424 159.895zM158.775 189.93c-3.994 6.022-4.847 8.102-9.219 14.07 1 0 2.612 0.162 3.612 0.162C156.588 198.086 156.594 194.993 158.775 189.93zM162.868 233.644c3.54-8.603 6.471-16.152 10.022-24.768l-1.164-1.946C168.77 215.778 165.631 224.77 162.868 233.644zM46.831 204.162c1 0 2.612-0.162 3.612-0.162 -4.372-5.969-5.225-6.342-9.219-12.364C43.406 196.699 43.412 198.086 46.831 204.162zM28.273 206.93l-1.164 1.946c3.552 8.615 4.447 16.165 7.987 24.768C32.333 224.77 31.23 215.778 28.273 206.93z" fill="#f0d8d8" stroke-width="none" opacity="1" stroke="none"/>
          <path id="SvgjsPath3354" d="M77.059 169.855c-0.83 2.3-3.59 4.11-5.59 5.25 -0.97 0.55-1.99 1.02-3.02 1.46 0.47-0.68 0.95-1.36 1.44-2.03 2.32-3.24 4.58-6.5 6.75-9.85 0.31-0.48 0.61-0.97 0.91-1.46C77.709 165.396 77.889 167.875 77.059 169.855zM123.169 170.306c-1.26-2.11-1.14-4.94-1-7.351 2.3 4.101 4.72 8.11 7.45 11.971 0.28 0.399 0.56 0.79 0.85 1.18C127.549 174.795 124.829 173.096 123.169 170.306z" fill="#e0b4b4" stroke-width="none" opacity="1" stroke="none"/>
          <path id="SvgjsPath3355" d="M122.672 157.263c0.007-0.057 0.015-0.112 0.021-0.169 16.884 9.666 24.725 22.013 36.082 32.836 -0.418 0.697-1.146 1.155-1.573 1.843C145.308 182.397 141.597 170.396 122.672 157.263zM75.469 157.905c-14.219 4.537-32.507 31.672-34.445 33.519 0.418 0.697 0.645 0.558 1.073 1.245C53.992 183.294 54.309 172.286 75.469 157.905zM193.988 197.678c-1.558-3.353-3.646-5.391-7.347-5.283 -1-0.828-12.552-7.804-21.648-11.366 -6.636-2.6-13.705-3.761-20.203-5.61 31.446 15.756 44.648 20.435 50.14 26.017C194.642 200.654 194.332 198.416 193.988 197.678zM10 198c14.511-7.683 26.714-13.407 44.203-23.001 -12.62 3.784-30.732 10.246-41.493 17.727 -7.185-0.069-9.89 7.664-10.658 15.546C5.147 202.205 6.798 200.401 10 198z" fill="#ffffff" stroke-width="none" opacity="1" stroke="none"/>
          <path id="SvgjsPath3356" d="M197.589 214.005c-0.21-5.52-1.16-11.329-3.51-16.369 -1.24-2.67-2.91-4.83-5.979-5.24 -0.36-0.05-0.721-0.08-1.08-0.09 -0.11-0.011-0.23-0.021-0.341-0.011 -0.069-0.06-0.149-0.1-0.22-0.149 -2.31-1.47-4.7-2.82-7.01-4.17 -4.66-2.721-9.39-5.07-14.42-7.04 -6.74-2.641-13.66-4.67-20.61-6.63 -0.79-0.83-1.59-1.67-2.38-2.511 -3.51-3.729-6.99-7.409-11.24-10.319 -2.3-1.58-4.75-2.92-7.27-4.101 -0.271-0.13-0.54-0.25-0.811-0.38 -0.029-0.02-0.069-0.029-0.109-0.05 -0.021 0.2-0.05 0.39-0.08 0.58 -0.2 1.33-0.42 2.67-0.58 4 -0.04 0.29-0.07 0.57-0.1 0.86 -0.011 0.149-0.03 0.29-0.04 0.439 -0.23 2.66-0.32 5.66 1.159 8 1.82 2.87 4.7 4.49 7.79 5.68 2.011 2.771 4.12 5.431 6.36 8.061 0.12 0.14 0.24 0.28 0.35 0.43 -0.939 3.71-1.59 7.51-2.17 11.28 -0.819 5.42-1.35 10.84-1.489 16.32 -0.15 5.449-0.011 10.939-0.311 16.39 -0.17 3.22-0.53 6.44-0.83 9.66 -1.069 0-2.14 0.01-3.21 0.01 -10.58 0.05-21.149 0.1-31.72 0.15 -10.06 0.05-20.11 0.08-30.17 0.109 -0.21-9.699-0.71-19.359-1.81-29.01 -0.58-5.01-1.06-10.04-1.95-15.01 -0.55-3.09-1.1-6.18-1.7-9.26 2.03-2.92 4.05-5.851 6.11-8.75 3.65-1.311 7.29-3.131 9.13-6.58 1.14-2.16 0.78-5.261 0.54-7.65 -0.01-0.1-0.02-0.189-0.03-0.29 -0.03-0.27-0.05-0.53-0.09-0.79 -0.15-1.359-0.36-2.72-0.55-4.07 -0.04-0.199-0.06-0.39-0.09-0.59 -0.05 0.021-0.09 0.04-0.13 0.051 -0.29 0.13-0.58 0.25-0.87 0.369 -2.75 1.17-5.42 2.521-7.9 4.181 -2.34 1.56-4.5 3.33-6.53 5.27 -1.99 1.91-3.76 4.09-5.6 6.141 -0.57 0.64-1.14 1.27-1.7 1.909 -1.31 0.391-2.61 0.801-3.91 1.2 -4.93 1.53-9.75 3.29-14.58 5.11 -2.61 0.99-5.18 2.07-7.75 3.16 -2.38 1.02-4.81 2.01-7.07 3.279 -2.51 1.4-5.09 2.86-7.56 4.48 -0.18 0.11-0.36 0.229-0.54 0.35 -0.11 0.07-0.21 0.141-0.31 0.21 -0.6-0.01-1.2 0.03-1.79 0.15 -3.79 0.729-6.07 4.16-7.31 7.55 -1.79 4.891-2.01 10.24-1.85 15.391 0.17 5.38 0.92 10.71 1.56 16.039 0.27 2.271 0.57 4.53 0.9 6.79 0 0.07 0.01 0.141 0.03 0.21 0.61 0.03 1.22 0.061 1.83 0.091 4.09 0.21 8.18 0.39 12.27 0.479 16.34 0.37 32.69 0.65 49.03 0.71 0.08 0 0.16 0 0.24 0 4.1 0.01 8.19 0.01 12.29-0.01 11.2-0.06 22.4-0.11 33.61-0.16 6.36-0.03 12.72-0.06 19.08-0.1 0.09 0 0.18 0 0.27-0.011 5.011-0.02 10.021-0.06 15.03-0.119 15.45-0.16 30.91-0.36 46.36-0.48 0.63-0.01 1.25-0.02 1.88-0.02 0.02-0.131 0.029-0.25 0.04-0.381 0.279-2.46 0.529-4.93 0.76-7.39C197.449 225.565 197.81 219.835 197.589 214.005zM77.059 169.855c-0.83 2.3-3.59 4.11-5.59 5.25 -0.97 0.55-1.99 1.02-3.02 1.46 0.47-0.68 0.95-1.36 1.44-2.03 2.32-3.24 4.58-6.5 6.75-9.85 0.31-0.48 0.61-0.97 0.91-1.46C77.709 165.396 77.889 167.875 77.059 169.855zM64.689 238.926c-12.94 0.029-25.88 0.06-38.82-0.011 -0.1 0-0.19 0-0.29 0 -6.52-0.04-13.03-0.16-19.55-0.319 -0.29-2.9-0.59-5.811-0.94-8.71 -0.69-5.681-1.44-11.36-1.4-17.101 0.03-5.2 0.18-11.33 3.06-15.859 1.11-1.75 2.74-2.95 4.65-3.421 0.54-0.14 1.11-0.22 1.7-0.22 0.01-0.01 0.01-0.01 0.02 0 0.31 2.05 0.66 4.09 1.01 6.141 0.36 2.159 0.64 4.34 1.22 6.449 0.62 2.19 1.25 4.38 1.95 6.551 1.3 4 2.59 8 3.85 12.02 1.26 4.06 3.14 7.86 4.73 11.79 -1.11-4.08-2.59-8.04-3.6-12.14 -0.99-3.98-2.25-7.83-3.53-11.721 -0.37-1.12-0.71-2.239-1.03-3.37 -0.94-3.229-1.72-6.47-2.45-9.77 -0.49-1.98-0.96-3.96-1.44-5.94 -0.03-0.119-0.06-0.229-0.09-0.35 0.12-0.06 0.24-0.12 0.35-0.18 0.28-0.15 0.56-0.29 0.83-0.431 2.67-1.39 5.35-2.76 8.08-4.02 4.87-2.23 9.93-4.21 14.94-6.11 5.05-1.91 10.08-3.859 15.1-5.85 -2.34 2.63-4.66 5.27-6.93 7.96 -1.78 2.11-3.35 4.35-4.84 6.64 -0.14 0.21-0.28 0.42-0.41 0.641 0.11 0.189 0.23 0.37 0.36 0.56 2.54 3.89 5.15 7.76 7.83 11.561 -2.62 0.22-5.24 0.47-7.85 0.789 -3.51 0.431-6.99 0.931-10.44 1.721 -0.73 0.17-1.46 0.33-2.2 0.479 -0.31 0.07-0.62 0.141-0.94 0.2 0.07 0.2 0.13 0.41 0.19 0.61 2.53 8.71 4.24 17.66 7.32 26.22 -0.87-5.3-1.74-10.57-2.98-15.8 -0.72-2.99-1.52-5.96-2.6-8.851 -0.21-0.58-0.45-1.149-0.7-1.72 0.7-0.1 1.4-0.22 2.1-0.35 3.52-0.63 7.04-1.2 10.59-1.63 2.64-0.32 5.26-0.71 7.88-1.141 0.39-0.06 0.78-0.12 1.17-0.189 -0.09-0.15-0.18-0.301-0.27-0.45 -1.07-1.82-2.21-3.601-3.41-5.36 -1.66-2.33-3.38-4.56-5.18-6.74 1.78-2.289 3.72-4.42 5.72-6.529 3.1-3.271 6.08-6.63 9.08-9.99 0.26-0.3 0.53-0.61 0.8-0.91 0.06-0.06 0.11-0.13 0.17-0.189 3.5-3.95 6.95-7.83 11.19-11.051 2.44-1.869 5.06-3.47 7.78-4.93 0.2-0.11 0.39-0.21 0.59-0.31 0.14 1.47 0.3 2.939 0.4 4.42 -2.85 4.09-5.75 8.149-8.67 12.21 -0.74 1.02-1.46 2.05-2.17 3.08 -0.04 0.05-0.08 0.109-0.12 0.16 -1.58 2.3-3.12 4.63-4.61 6.989 -0.13 0.21-0.26 0.41-0.39 0.62 0.05 0.42 0.09 0.83 0.14 1.24 0.97 9.04 1.84 18.09 2.86 27.13 0.95 8.49 1.65 17 2.7 25.47C66.359 238.926 65.529 238.926 64.689 238.926zM123.169 170.306c-1.26-2.11-1.14-4.94-1-7.351 2.3 4.101 4.72 8.11 7.45 11.971 0.28 0.399 0.56 0.79 0.85 1.18C127.549 174.795 124.829 173.096 123.169 170.306zM189.979 238.695c-5.431-0.03-10.87-0.06-16.301-0.08 -13.55-0.04-27.09-0.03-40.63 0.03 0.11-0.62 0.23-1.25 0.34-1.87 0.551-3.04 1.25-6.12 1.45-9.2 0.37-5.479 0.511-10.939 0.66-16.43 0.14-5.41 0.78-10.811 1.32-16.18 0.319-3.141 0.64-6.29 1.12-9.41 0.06-0.41 0.12-0.811 0.189-1.21 -0.1-0.15-0.21-0.29-0.319-0.44 -0.021-0.02-0.03-0.04-0.051-0.06 -1.71-2.23-3.46-4.42-5.149-6.66 -0.07-0.09-0.141-0.181-0.21-0.271 -0.65-0.859-1.29-1.729-1.91-2.609 -2.851-4.04-5.561-8.181-8.25-12.33 0.1-1.46 0.28-2.91 0.42-4.37 0.18 0.11 0.37 0.21 0.55 0.32 2.45 1.43 4.84 2.97 7.061 4.739 4.069 3.24 7.569 6.99 11.1 10.771 0.01 0.01 0.02 0.03 0.03 0.04 0.29 0.31 0.58 0.62 0.87 0.93 3.14 3.35 6.3 6.68 9.6 9.88 2 1.94 4.09 3.78 6.15 5.66 -0.36 0.44-0.71 0.88-1.061 1.33 -1.56 2.02-2.88 4.27-4.25 6.42 -1.189 1.96-2.32 3.94-3.39 5.96 -0.08 0.14-0.15 0.28-0.22 0.42 0.369 0.07 0.739 0.141 1.109 0.2 2.8 0.51 5.62 0.97 8.44 1.36 4.1 0.569 8.18 1.26 12.279 1.8 -0.229 0.43-0.439 0.859-0.649 1.29 -1.34 2.75-2.43 5.84-3.351 8.75 -1.699 5.359-3.06 10.72-4.06 16.26 1.01-2.63 1.94-5.28 2.87-7.93 0.99-2.84 1.8-5.761 2.83-8.59 1.16-3.211 2.29-6.431 3.41-9.65 0.069-0.19 0.13-0.37 0.199-0.561 -0.319-0.05-0.64-0.109-0.949-0.159 -4.15-0.75-8.29-1.521-12.471-2.11 -2.729-0.38-5.479-0.69-8.229-0.96 2.81-4.36 5.47-8.81 8.13-13.26 0.1-0.181 0.21-0.351 0.31-0.521 -0.159-0.2-0.33-0.39-0.51-0.58 -2.01-2.25-4.109-4.439-6.149-6.68 -2.16-2.38-4.37-4.72-6.591-7.05 6.46 2.38 12.95 4.66 19.381 7.109 4.77 1.82 9.3 4.23 13.85 6.54 2.03 1.021 4.11 2 6.16 3.04 0.24 0.11 0.479 0.23 0.71 0.351 0.149 0.08 0.29 0.149 0.43 0.229 -0.57 2.19-1.38 4.29-2.11 6.431 -1.05 3.08-1.88 6.22-2.779 9.35 -0.37 1.27-0.75 2.54-1.16 3.8 -1.37 4.17-2.66 8.32-3.73 12.59 -0.93 3.7-1.859 7.41-2.779 11.11 2.979-7.91 5.47-15.97 8.08-24.01 1.409-4.34 2.47-8.771 3.68-13.17 0.53-1.931 1.03-3.84 1.4-5.79 0.029-0.15 0.06-0.3 0.09-0.46 0.229 0.02 0.449 0.05 0.67 0.1 0.59 0.1 1.149 0.271 1.689 0.49 1.36 0.56 2.311 1.71 3.011 3.07 0.02 0.029 0.029 0.06 0.05 0.09 0.79 1.56 1.25 3.38 1.63 4.859 2.66 10.36 1.72 21.28 0.75 31.78 -0.17 1.85-0.33 3.69-0.48 5.54C192.839 238.716 191.409 238.705 189.979 238.695z" fill="#d19292" stroke-width="none" opacity="1" stroke="none"/>
        </g>
        <g id="svga-group-head" transform="matrix(0.9999999999999999,-1.7453293948976878e-9,1.7453293948976878e-9,0.9999999999999999,-2.6179939993653534e-7,1.7453297118663613e-7)">
          <g id="svga-group-ears-left-move" transform="matrix(1,0,0,1,0,0)" style="display: none;">
            <g id="svga-group-ears-left" transform="matrix(0.9499999,0,0,0.9499999,2.2241708416128176,4.84772469176788)">
              <path id="SvgjsPath3347" d="M47.001 83.974c-1.376-2.313-5.638-7.997-9.98-6.603 -2.749 0.882-3.293 3.765-3.735 6.311 -0.588 3.386 0.471 10.083 1.389 12.503 0.881 2.325 3.533 6.816 5.264 8.527 2.13 2.1 4.775 8.793 5.194 9.487 0.66 1.097 1.536 2.745 4.122 2.538 2.853-0.229 4.584-1.742 5.856-1.999C58.253 114.109 50.582 89.995 47.001 83.974z" fill="#a97760" stroke="#7b3d21" stroke-width="1.5" opacity="1"/>
              <path id="SvgjsPath3348" d="M44.197 97.997c-0.132-0.548 0.007-1.47 0.142-2.362 0.124-0.812 0.24-1.579 0.169-2.121 -0.267-2.032-1.773-5.893-2.757-7.985 -1.132-2.407-2.963-5.439-5.262-6.221 -0.95-0.324-1.575 0.063-1.938 0.456 -0.266 0.289-0.325 0.627-0.238 0.667 0.086 0.04 0.285-0.24 0.572-0.504 0.235-0.216 0.579-0.402 1.051-0.363 -0.19 1.011-1.167 6.49-0.744 10.225 0.333 2.938 1.593 5.131 1.79 5.46 0.029 0.346 0.077 0.685 0.148 1.014 0.929 4.287 4.971 9.163 6.378 10.758 0.259 0.295 0.531 0.47 0.598 0.398 0.066-0.072-0.094-0.364-0.353-0.66 -1.388-1.585-5.391-6.442-6.289-10.579 -0.952-4.389 2.318-10.896 3.048-12.272 0.371 0.646 0.687 1.267 0.93 1.785 0.19 0.406 0.402 0.881 0.619 1.395 -0.429 0.718-3.434 5.958-2.338 10.153 0.406 1.546 2.235 3.54 3.447 4.086 0.667 0.301 0.919 0.75 1.209 1.271 0.336 0.604 0.718 1.288 1.828 1.784 0.225 0.102 0.429 0.142 0.61 0.142 0.313 0 0.551-0.126 0.725-0.276 0.018 0.266 0.017 0.604 0.009 0.917 -0.012 0.404 0.042 0.737 0.137 0.745 0.094 0.008 0.196-0.313 0.207-0.717 0.016-0.496 0.013-1.11-0.072-1.403 -0.248-0.865-1.008-1.841-1.813-2.875C45.221 99.896 44.403 98.844 44.197 97.997zM36.95 94.196c-2.177-6.731 0.656-12.54 1.144-13.464 0.85 0.775 1.6 1.811 2.21 2.824C39.86 84.365 37.041 89.669 36.95 94.196zM46.341 104.042c-1.004-0.447-1.339-1.051-1.666-1.633 -0.293-0.527-0.598-1.072-1.369-1.42 -0.168-0.075-0.352-0.191-0.542-0.323 -2.486-5.906 0.272-8.488 0.963-9.017 0.211 0.722 0.369 1.384 0.439 1.915 0.063 0.488-0.052 1.263-0.167 2.012 -0.142 0.929-0.286 1.89-0.137 2.512 0.226 0.926 1.069 2.009 1.884 3.057 0.723 0.929 1.466 1.888 1.721 2.67C47.359 103.972 47.017 104.345 46.341 104.042z" fill="#7b3d21" stroke-width="none" opacity="1"/>
            </g>
          </g>
          <g id="svga-group-ears-right-move" transform="matrix(1,0,0,1,0,0)" style="display: none;">
            <g id="svga-group-ears-right" transform="matrix(0.9499999,0,0,0.9499999,7.762725333769225,4.84772469176788)">
              <path id="SvgjsPath3349" d="M152.736 83.974c1.377-2.313 5.639-7.997 9.98-6.603 2.75 0.882 3.293 3.765 3.736 6.311 0.588 3.386-0.471 10.083-1.389 12.503 -0.881 2.325-3.533 6.816-5.266 8.527 -2.129 2.1-4.775 8.793-5.193 9.487 -0.658 1.097-1.535 2.745-4.121 2.538 -2.854-0.229-4.584-1.742-5.857-1.999C141.484 114.109 149.156 89.995 152.736 83.974z" fill="#a97760" stroke="#7b3d21" stroke-width="1.5" opacity="1"/>
              <path id="SvgjsPath3350" d="M153.727 100.913c-0.805 1.033-1.564 2.009-1.813 2.875 -0.086 0.293-0.088 0.907-0.072 1.403 0.012 0.404 0.113 0.725 0.207 0.717s0.148-0.341 0.137-0.745c-0.008-0.313-0.008-0.651 0.01-0.917 0.174 0.15 0.412 0.276 0.725 0.276 0.182 0 0.385-0.04 0.609-0.142 1.109-0.496 1.492-1.18 1.828-1.784 0.289-0.52 0.543-0.969 1.209-1.271 1.213-0.546 3.041-2.54 3.447-4.086 1.096-4.194-1.908-9.435-2.338-10.153 0.217-0.513 0.43-0.988 0.619-1.395 0.244-0.518 0.559-1.139 0.93-1.785 0.73 1.377 4 7.883 3.049 12.272 -0.896 4.137-4.9 8.994-6.289 10.579 -0.258 0.296-0.418 0.588-0.352 0.66 0.066 0.071 0.338-0.104 0.598-0.398 1.406-1.596 5.449-6.471 6.379-10.758 0.07-0.329 0.117-0.668 0.146-1.014 0.197-0.329 1.459-2.523 1.791-5.46 0.422-3.735-0.555-9.214-0.744-10.225 0.473-0.039 0.814 0.146 1.051 0.363 0.287 0.264 0.486 0.544 0.572 0.504s0.027-0.378-0.238-0.667c-0.363-0.393-0.988-0.779-1.938-0.456 -2.299 0.782-4.131 3.814-5.262 6.221 -0.984 2.093-2.49 5.953-2.758 7.985 -0.072 0.542 0.045 1.309 0.17 2.121 0.135 0.892 0.273 1.814 0.141 2.362C155.336 98.844 154.518 99.896 153.727 100.913zM159.434 83.555c0.611-1.013 1.361-2.049 2.211-2.824 0.488 0.925 3.32 6.733 1.145 13.464C162.697 89.669 159.879 84.365 159.434 83.555zM152.27 103.816c0.254-0.782 0.998-1.741 1.721-2.67 0.816-1.048 1.658-2.131 1.885-3.057 0.148-0.622 0.004-1.583-0.137-2.512 -0.115-0.749-0.23-1.524-0.166-2.012 0.068-0.531 0.227-1.193 0.438-1.915 0.691 0.529 3.449 3.111 0.965 9.017 -0.191 0.132-0.375 0.248-0.543 0.323 -0.771 0.348-1.074 0.893-1.369 1.42 -0.326 0.582-0.662 1.186-1.666 1.633C152.721 104.345 152.379 103.972 152.27 103.816z" fill="#7b3d21" stroke-width="none" opacity="1"/>
            </g>
          </g>
          <g id="svga-group-faceshape-wrap" transform="matrix(1,0,0,1,0,0)">
            <g id="svga-group-faceshape-single">
              <path id="SvgjsPath2933" d="M100.002 0.867C66.381 0.814 39.186 27.899 39.134 61.374c-0.008 5.316 0.669 10.473 1.953 15.389l0.004 0c0.011 0.053 8.713 38.607 14.519 50.351 6.073 12.285 23.814 32.157 44.392 32.157 20.582 0 38.32-19.872 44.392-32.157 5.805-11.743 14.507-50.297 14.519-50.351l0.005 0c1.283-4.916 1.961-10.072 1.952-15.389C160.819 27.899 133.623 0.814 100.002 0.867z" fill="#a97760" stroke-width="none" opacity="1" stroke="none"/>
              <path id="SvgjsPath2934" d="M120.754 4.453c21.441 9.336 36.411 30.632 36.45 55.454 0.008 5.316-0.669 10.473-1.953 15.389l-0.005 0c-0.011 0.053-8.713 38.607-14.519 50.352 -5.709 11.548-21.608 31.944-40.725 31.944s-35.016-20.396-40.725-31.944c-5.806-11.744-14.507-50.298-14.519-50.352l-0.004 0c-1.284-4.916-1.962-10.072-1.953-15.389 0.038-24.822 15.008-46.118 36.45-55.454 -23.386 8.412-40.076 30.705-40.117 56.92 -0.008 5.316 0.669 10.473 1.953 15.389l0.004 0c0.011 0.053 8.713 38.607 14.519 50.351 6.073 12.285 23.814 32.157 44.392 32.157 20.579 0 38.319-19.872 44.392-32.157 5.805-11.743 14.507-50.297 14.519-50.351l0.005 0c1.283-4.916 1.961-10.072 1.952-15.389C160.83 35.158 144.14 12.865 120.754 4.453z" fill="#a16c54" stroke-width="none" opacity="1" stroke="none"/>
              <path id="SvgjsPath2935" d="M100.002 0.867C66.381 0.814 39.186 27.899 39.134 61.374c-0.008 5.316 0.669 10.473 1.953 15.389l0.004 0c0.011 0.053 8.713 38.607 14.519 50.351 6.073 12.285 23.814 32.157 44.392 32.157 20.582 0 38.32-19.872 44.392-32.157 5.805-11.743 14.507-50.297 14.519-50.351l0.005 0c1.283-4.916 1.961-10.072 1.952-15.389C160.819 27.899 133.623 0.814 100.002 0.867z" fill="none" stroke="#7b3d21" stroke-width="1.5" opacity="1"/>
            </g>
          </g>
          <g id="svga-group-mouth-single-move" transform="matrix(1,0,0,1,0,0)">
            <g id="svga-group-mouth-single" transform="matrix(1,0,0,1,0,0)">
              <path id="SvgjsPath2988" d="M100.002 141.435c-4.158 0-5.133-3.232-5.133-3.232h10.267C105.136 138.202 103.659 141.435 100.002 141.435z" fill="url(#SvgjsLinearGradient2989)" opacity="1"/>
              <path id="SvgjsPath2992" d="M87.536 132.96c2.756-0.951 6.239-3.625 8.432-3.723 1.133-0.051 2.351 0.87 3.574 1.166 0.851 0.207 3.264-1.156 4.13-1.166 2.272-0.022 6.326 2.771 8.769 3.723 0.135 0.055 0 0 0 0s-5.056 6.021-12.452 6.021C91.618 138.98 87.536 132.96 87.536 132.96S87.399 133.01 87.536 132.96z" fill="#43194b" stroke="#340e3c" stroke-width="0.75" opacity="1"/>
              <path id="SvgjsPath2993" d="M112.808 132.902c-0.187-0.076-0.606-0.028-0.753-0.021 -0.304 0.016-0.546-0.117-1.214-0.129 -0.742-0.012-3.945-0.268-5.003-0.338 -2.129-0.143-3.824 0.666-5.848 0.666 -2.025 0-3.868-0.883-5.996-0.74 -1.057 0.072-4.113 0.395-4.857 0.412 -0.663 0.019-0.923 0.133-1.231 0.12 -0.143-0.007-0.595-0.05-0.771 0.05 -0.147 0.086-0.09 0.559 0.027 0.683 0.285 0.298 1.397-0.233 1.959-0.22 0.777 0.017 3.843-0.05 4.917-0.121 2.081-0.142 3.936 0.821 5.952 0.821s3.725-0.889 5.806-0.749c1.071 0.072 4.281 0.064 5.06 0.049 0.563-0.014 1.764 0.449 2.052 0.22C113.043 133.495 112.972 132.969 112.808 132.902z" fill="#19011d" stroke-width="none" opacity="1" stroke="none"/>
              <path id="SvgjsPath2994" d="M99.989 137.439c-3.37 0-6.645-1.154-9.241-3.306 1.307-0.072 2.652-0.277 3.961-0.219 1.613 0.07 3.144 0.705 4.756 0.813 1.742 0.116 3.358-0.488 5.064-0.695 1.422-0.171 2.931 0.059 4.357 0.111C106.335 136.101 103.244 137.439 99.989 137.439zM104.78 131.682c1.313-0.08 2.661 0.088 3.974 0.141 -1.43-0.712-2.953-1.553-4.549-1.807 -1.374-0.218-2.71 0.882-4.045 1.104 -1.506 0.25-2.69-1.15-4.16-1.15 -1.592 0.07-3.198 1.099-4.576 1.805 1.282-0.076 2.6-0.263 3.884-0.141 1.572 0.147 3.094 0.714 4.682 0.714C101.612 132.348 103.161 131.78 104.78 131.682z" fill="#52275a" stroke-width="none" opacity="1" stroke="none"/>
              <path id="SvgjsPath2995" d="M99.941 136.486c-2.029 0-4.007-0.701-5.707-2.001 0.38-0.037 0.764-0.066 1.133-0.066 0.117 0 0.234 0.003 0.351 0.009 0.609 0.033 1.209 0.208 1.846 0.394 0.618 0.178 1.256 0.363 1.923 0.419 0.132 0.012 0.264 0.016 0.395 0.016 0.819 0 1.596-0.204 2.348-0.399 0.477-0.126 0.928-0.245 1.392-0.313 0.253-0.04 0.527-0.058 0.837-0.058 0.268 0 0.544 0.014 0.818 0.034C103.862 135.572 102.03 136.486 99.941 136.486z" fill="#62386a" stroke-width="none" opacity="1" stroke="none"/>
            </g>
          </g>
          <g id="svga-group-eyes-left-move" transform="matrix(1,0,0,1,0,0)">
            <g id="svga-group-eyes-left" transform="matrix(1,0,0,1,0,0)">
              <g id="svga-group-eyesback-left">
                <path id="SvgjsPath3150" d="M61.952 84.523c-0.506-2.285 5.191-3.973 12.711-3.051 7.518 0.923 12.738 5.524 12.052 7.844 -0.38 1.286-10.639 3.245-14.253 2.847C68.798 91.758 63.174 90.04 61.952 84.523z" fill="url(#SvgjsRadialGradient3151)" opacity="1"/>
              </g>
              <g id="svga-group-eyesiriswrapper-left" transform="matrix(1,0,0,1,-0.75,-0.5)">
                <g id="svga-group-eyesiriscontrol-left" transform="matrix(1,0,0,1,0,0)">
                  <g id="svga-group-eyesiris-left" transform="matrix(1,0,0,1,0,0)">
                    <path id="SvgjsPath3204" d="M83.5 87c0 4.694-3.806 8.5-8.499 8.5 -4.694 0-8.501-3.806-8.501-8.5l0 0c0-4.694 3.807-8.5 8.501-8.5C79.694 78.499 83.5 82.305 83.5 87L83.5 87z" fill="#4d3623" stroke-width="none" opacity="1" stroke="none"/>
                    <path id="SvgjsPath3205" d="M74.048 78.595c-0.033 0.004-0.066 0.008-0.101 0.012 0.041 0.191 0.081 0.384 0.12 0.575C74.06 78.987 74.055 78.789 74.048 78.595zM74.066 79.18c0.099 2.793 0.262 5.282 0.732 6.183C75.047 84.377 74.625 81.92 74.066 79.18zM74.8 85.365c-0.061 0.236-0.153 0.397-0.294 0.452 -0.142 0.053-0.319-0.008-0.521-0.146 0.058 0.236 0.052 0.422-0.051 0.537 -0.102 0.114-0.285 0.142-0.527 0.11 0.16 0.184 0.242 0.353 0.206 0.5 -0.039 0.148-0.189 0.258-0.415 0.343 0.225 0.088 0.376 0.199 0.411 0.347 0.036 0.148-0.046 0.315-0.205 0.498 0.241-0.029 0.426 0.001 0.525 0.115 0.101 0.114 0.106 0.301 0.05 0.537 0.199-0.137 0.376-0.197 0.518-0.142 0.143 0.053 0.234 0.216 0.291 0.454 0.114-0.215 0.243-0.353 0.396-0.368 0.148-0.02 0.307 0.084 0.466 0.267 0.002-0.244 0.053-0.423 0.181-0.51 0.124-0.086 0.311-0.069 0.537 0.018 -0.11-0.216-0.148-0.398-0.078-0.534 0.071-0.135 0.245-0.207 0.487-0.235 -0.199-0.14-0.321-0.283-0.318-0.436 -0.001-0.153 0.119-0.296 0.321-0.434 -0.241-0.03-0.412-0.103-0.484-0.237 -0.07-0.135-0.031-0.319 0.081-0.535 -0.229 0.085-0.413 0.102-0.538 0.016 -0.126-0.086-0.177-0.267-0.178-0.51 -0.158 0.182-0.316 0.282-0.468 0.262C75.041 85.714 74.911 85.58 74.8 85.365zM75.66 85.471c0.679-0.758 1.446-3.13 2.224-5.813C76.674 82.174 75.662 84.453 75.66 85.471zM77.883 79.657c0.085-0.172 0.172-0.348 0.253-0.524 -0.03-0.011-0.06-0.024-0.09-0.037C77.992 79.284 77.938 79.472 77.883 79.657zM76.377 85.965c0.953-0.357 2.736-2.101 4.671-4.115C78.808 83.517 76.851 85.065 76.377 85.965zM81.048 81.851c0.142-0.106 0.287-0.213 0.433-0.318 -0.021-0.025-0.043-0.047-0.06-0.07C81.297 81.59 81.174 81.722 81.048 81.851zM76.777 86.738c1.01 0.125 3.399-0.591 6.052-1.475C80.068 85.698 77.617 86.159 76.777 86.738zM82.829 85.263c0.156-0.022 0.318-0.048 0.478-0.073 -0.007-0.026-0.013-0.054-0.02-0.081C83.135 85.16 82.979 85.212 82.829 85.263zM76.775 87.606c0.836 0.583 3.284 1.057 6.038 1.505C80.171 88.214 77.786 87.484 76.775 87.606zM82.813 89.111c0.135 0.047 0.271 0.095 0.404 0.138 0.007-0.024 0.013-0.047 0.018-0.071C83.098 89.158 82.954 89.135 82.813 89.111zM76.367 88.375c0.471 0.902 2.42 2.462 4.649 4.142C79.092 90.492 77.32 88.737 76.367 88.375zM81.018 92.514c0.083 0.087 0.17 0.179 0.253 0.268 0.014-0.017 0.027-0.031 0.043-0.046C81.215 92.662 81.113 92.587 81.018 92.514zM75.652 88.867c-0.004 1.019 0.995 3.302 2.191 5.827C77.079 92.006 76.327 89.628 75.652 88.867zM77.844 94.694c0.03 0.106 0.062 0.215 0.09 0.324 0.021-0.008 0.036-0.015 0.055-0.02C77.941 94.896 77.892 94.793 77.844 94.694zM74.788 88.968c-0.476 0.902-0.653 3.386-0.768 6.178C74.594 92.413 75.031 89.958 74.788 88.968zM74.021 95.146c-0.023 0.106-0.044 0.214-0.066 0.323 0.02 0.004 0.035 0.005 0.055 0.007C74.013 95.368 74.018 95.254 74.021 95.146zM73.979 88.657c-0.844 0.576-2.154 2.697-3.553 5.114C72.204 91.617 73.733 89.645 73.979 88.657zM70.427 93.771c-0.074 0.09-0.152 0.185-0.229 0.274 0.018 0.012 0.034 0.02 0.053 0.034C70.309 93.976 70.369 93.873 70.427 93.771zM73.405 88.006c-1.015 0.119-3.16 1.385-5.522 2.875C70.46 89.801 72.726 88.768 73.405 88.006zM67.883 90.884c-0.122 0.051-0.247 0.102-0.372 0.156 0.009 0.019 0.021 0.038 0.033 0.057C67.658 91.027 67.771 90.954 67.883 90.884zM73.198 87.161c-0.951-0.365-3.441-0.238-6.227-0.016C69.755 87.383 72.244 87.521 73.198 87.161zM66.972 87.145c-0.151-0.014-0.308-0.028-0.457-0.041 -0.001 0.027-0.003 0.053-0.001 0.08C66.669 87.169 66.822 87.156 66.972 87.145zM73.407 86.318c-0.67-0.763-2.932-1.809-5.499-2.905C70.259 84.915 72.397 86.196 73.407 86.318zM67.908 83.413c-0.147-0.095-0.297-0.189-0.446-0.285 -0.013 0.026-0.026 0.053-0.041 0.078C67.585 83.276 67.75 83.344 67.908 83.413zM73.985 85.67c-0.239-0.989-1.758-2.967-3.521-5.132C71.849 82.963 73.147 85.09 73.985 85.67zM70.465 80.538c-0.095-0.163-0.188-0.329-0.281-0.494 -0.026 0.018-0.055 0.037-0.079 0.054C70.224 80.245 70.348 80.393 70.465 80.538z" fill="url(#SvgjsRadialGradient3206)" opacity="1"/>
                    <path id="SvgjsPath3209" d="M76.255 78.622c-0.034-0.004-0.066-0.01-0.1-0.014 -0.011 0.196-0.022 0.393-0.034 0.586C76.164 79.004 76.211 78.812 76.255 78.622zM76.12 79.193c-0.627 2.724-1.114 5.17-0.892 6.162C75.724 84.467 75.95 81.984 76.12 79.193zM75.229 85.356c-0.119 0.212-0.25 0.344-0.401 0.36 -0.15 0.014-0.306-0.091-0.464-0.276 -0.006 0.243-0.06 0.421-0.188 0.505 -0.128 0.083-0.313 0.063-0.539-0.03 0.107 0.219 0.143 0.403 0.069 0.536 -0.075 0.133-0.249 0.201-0.489 0.224 0.194 0.144 0.312 0.289 0.308 0.441 -0.003 0.152-0.126 0.292-0.327 0.428 0.24 0.034 0.41 0.111 0.478 0.247 0.067 0.136 0.025 0.318-0.091 0.532 0.229-0.081 0.414-0.093 0.537-0.003 0.123 0.088 0.17 0.27 0.164 0.514 0.166-0.177 0.325-0.278 0.478-0.253 0.148 0.02 0.274 0.16 0.382 0.379 0.064-0.236 0.16-0.396 0.306-0.447 0.143-0.051 0.318 0.014 0.515 0.157 -0.051-0.237-0.041-0.423 0.063-0.536s0.29-0.136 0.532-0.102c-0.157-0.187-0.238-0.356-0.195-0.504 0.039-0.148 0.192-0.255 0.423-0.336 -0.226-0.091-0.372-0.206-0.407-0.354 -0.032-0.149 0.053-0.316 0.218-0.495 -0.243 0.023-0.427-0.009-0.524-0.125 -0.099-0.115-0.102-0.303-0.039-0.538 -0.201 0.134-0.38 0.19-0.521 0.132C75.37 85.756 75.281 85.593 75.229 85.356zM76.033 85.683c0.852-0.558 2.206-2.65 3.652-5.04C77.865 82.76 76.298 84.699 76.033 85.683zM79.685 80.641c0.126-0.145 0.255-0.292 0.38-0.44 -0.027-0.019-0.052-0.04-0.078-0.06C79.886 80.31 79.785 80.477 79.685 80.641zM76.597 86.345c1.013-0.099 3.187-1.322 5.577-2.767C79.578 84.609 77.287 85.598 76.597 86.345zM82.173 83.579c0.165-0.065 0.333-0.131 0.501-0.195 -0.014-0.029-0.029-0.056-0.04-0.083C82.481 83.392 82.328 83.487 82.173 83.579zM76.783 87.194c0.943 0.382 3.437 0.309 6.227 0.142C80.231 87.042 77.745 86.853 76.783 87.194zM83.01 87.336c0.158 0.019 0.32 0.036 0.48 0.053 0.001-0.027 0.002-0.055 0.003-0.083C83.332 87.316 83.168 87.326 83.01 87.336zM76.558 88.033c0.655 0.78 2.898 1.871 5.442 3.017C79.679 89.499 77.565 88.177 76.558 88.033zM82 91.049c0.117 0.08 0.236 0.161 0.354 0.238 0.013-0.021 0.024-0.042 0.035-0.063C82.262 91.168 82.129 91.109 82 91.049zM75.964 88.67c0.221 0.993 1.699 3.004 3.419 5.205C78.048 91.419 76.791 89.266 75.964 88.67zM79.384 93.872c0.059 0.106 0.117 0.217 0.176 0.325 0.018-0.013 0.034-0.023 0.053-0.034C79.536 94.065 79.458 93.967 79.384 93.872zM75.146 88.96c-0.267 0.982 0.107 3.447 0.608 6.195C75.711 92.361 75.601 89.87 75.146 88.96zM75.754 95.155c0.002 0.11 0.004 0.224 0.004 0.337 0.021-0.003 0.038-0.005 0.058-0.005C75.796 95.376 75.775 95.264 75.754 95.155zM74.285 88.834c-0.693 0.748-1.508 3.102-2.341 5.769C73.205 92.11 74.265 89.853 74.285 88.834zM71.944 94.603c-0.05 0.096-0.099 0.195-0.147 0.295 0.017 0.008 0.032 0.013 0.051 0.021C71.879 94.815 71.913 94.707 71.944 94.603zM73.584 88.324c-0.964 0.338-2.779 2.048-4.756 4.021C71.104 90.724 73.091 89.215 73.584 88.324zM68.828 92.345c-0.095 0.067-0.194 0.138-0.29 0.206 0.014 0.016 0.027 0.028 0.041 0.045C68.661 92.511 68.746 92.428 68.828 92.345zM73.197 87.546c-1.01-0.148-3.409 0.521-6.078 1.349C69.889 88.518 72.345 88.106 73.197 87.546zM67.119 88.897c-0.131 0.018-0.265 0.034-0.4 0.054 0.005 0.021 0.011 0.042 0.018 0.063C66.865 88.977 66.993 88.936 67.119 88.897zM73.217 86.677c-0.824-0.599-3.263-1.121-6.01-1.627C69.833 86 72.202 86.777 73.217 86.677zM67.207 85.05c-0.143-0.052-0.29-0.106-0.432-0.158 -0.008 0.026-0.016 0.051-0.021 0.077C66.907 84.995 67.06 85.022 67.207 85.05zM73.637 85.917c-0.45-0.911-2.363-2.506-4.561-4.23C70.959 83.747 72.693 85.538 73.637 85.917zM69.076 81.688c-0.118-0.13-0.236-0.26-0.355-0.391 -0.021 0.022-0.041 0.044-0.061 0.065C68.8 81.471 68.941 81.58 69.076 81.688zM74.363 85.44c0.024-1.017-0.93-3.321-2.073-5.868C72.999 82.273 73.704 84.663 74.363 85.44zM72.29 79.572c-0.049-0.182-0.096-0.366-0.144-0.55 -0.029 0.01-0.062 0.021-0.09 0.032C72.134 79.227 72.214 79.401 72.29 79.572z" fill="url(#SvgjsRadialGradient3210)" opacity="1"/>
                    <path id="SvgjsPath3213" d="M78.334 87c0 1.842-1.492 3.333-3.333 3.333S71.666 88.841 71.666 87c0-1.841 1.494-3.334 3.335-3.334C76.844 83.666 78.334 85.159 78.334 87z" fill="#4d3623" stroke-width="none" opacity="1" stroke="none"/>
                    <path id="SvgjsPath3214" d="M78.334 87c0 1.842-1.492 3.333-3.333 3.333S71.666 88.841 71.666 87c0-1.841 1.494-3.334 3.335-3.334C76.844 83.666 78.334 85.159 78.334 87z" fill="#000000" stroke-width="none" opacity="0.9"/>
                    <path id="SvgjsPath3215" d="M70.35 90.893c0.636-0.427 1.5-0.255 1.927 0.38 0.427 0.637 0.258 1.5-0.379 1.927 -0.638 0.429-1.5 0.258-1.927-0.378C69.544 92.185 69.713 91.32 70.35 90.893L70.35 90.893z" fill="url(#SvgjsLinearGradient3216)" opacity="0.5"/>
                    <path id="SvgjsPath3219" d="M77.635 86.536c-0.356 0.53-1.373 0.468-2.275-0.136 -0.903-0.605-1.346-1.526-0.991-2.055l0.001-0.001c0.354-0.53 1.372-0.469 2.274 0.137 0.903 0.604 1.346 1.524 0.992 2.054C77.635 86.536 77.635 86.536 77.635 86.536z" fill="url(#SvgjsLinearGradient3220)" opacity="0.5"/>
                    <path id="SvgjsPath3223" d="M81.682 85.121c-0.806 1.237-2.884 1.31-4.641 0.166 -1.756-1.145-2.527-3.075-1.722-4.311 0.806-1.235 2.884-1.31 4.641-0.166C81.715 81.956 82.485 83.887 81.682 85.121L81.682 85.121z" fill="url(#SvgjsLinearGradient3224)" opacity="0.75"/>
                  </g>
                </g>
              </g>
              <g id="svga-group-eyesfront-left">
                <path id="SvgjsPath3172" d="M55.5 88c0 13.807 8.06 24.999 18 24.999s18-11.192 18-24.999c0-13.808-8.06-25-18-25S55.5 74.192 55.5 88zM61.952 84.523c-0.506-2.285 5.191-3.973 12.711-3.051 7.518 0.923 12.738 5.524 12.052 7.844 -0.38 1.286-10.639 3.245-14.253 2.847C68.798 91.758 63.174 90.04 61.952 84.523z" fill="#a97760" stroke-width="none" opacity="1" stroke="none"/>
                <path id="SvgjsPath3173" d="M72.462 92.163c3.614 0.398 13.873-1.561 14.253-2.847 0.687-2.32-4.534-6.921-12.052-7.844 -6.46-0.792-11.563 0.345-12.556 2.128 0.898-6.4 7.7-11.397 15.987-11.434 8.911-0.037 16.148 5.676 16.172 12.765 0.021 7.088-7.185 12.862-16.095 12.902 -8.913 0.037-16.149-5.676-16.173-12.764 0-0.105 0.016-0.208 0.019-0.313C63.348 90.083 68.852 91.764 72.462 92.163z" fill="url(#SvgjsRadialGradient3174)" opacity="1"/>
                <path id="SvgjsPath3178" d="M61.952 84.523c-0.506-2.285 5.191-3.973 12.711-3.051 7.518 0.923 12.738 5.524 12.052 7.844 -0.38 1.286-10.639 3.245-14.253 2.847C68.798 91.758 63.174 90.04 61.952 84.523z" fill="url(#SvgjsRadialGradient3179)" opacity="1"/>
                <path id="SvgjsPath3182" d="M62.349 79.417c4.208-1.978 9.35-2.16 13.838-1.005 2.404 0.561 4.965 1.285 7.063 2.638 1.945 1.135 3.525 2.5 5.002 4.19 -1.342-1.701-2.773-3.118-4.623-4.27 -2.276-1.416-4.769-2.294-7.364-2.916C71.678 76.928 66.542 77.184 62.349 79.417z" fill="#7b3d21" stroke-width="none" opacity="1" stroke="none"/>
                <path id="SvgjsPath3183" d="M57.318 80.972c0 0 2.328 0.881 3.595 0.62 -0.39-0.459-1.096-1.604-1.096-1.604s1.853 0.551 3.151 0.032c0.88-0.352 4.065-1 5.456-1.066 1.687-0.082 5.073 0.125 6.735 0.424 3.374 0.608 8.985 2.63 11.678 7.184 0.255 0.572 1.407 0.921 1.407 0.921s-1.02-0.215-1.149 0.042c-0.282 0.561 1.298 2.016 1.496 2.197 -0.161-0.145-1.289-1.135-1.722-0.967 -0.061 0.022-0.137 0.388-0.155 0.482 0.3-2.426-4.838-6.746-12.052-7.604 -7.52-0.894-13.217 0.743-12.711 2.958 1.222 5.348 6.846 7.013 10.51 7.405 2.526 0.271 8.298-0.577 11.675-1.537l1.011-0.317c-1.999 1.009-7.524 2.195-9.767 2.403 -0.744 0.07-2.24 0.104-2.986 0.085 -5.949-0.158-10.16-3.179-11.729-7.26 -0.125-0.328-0.494-0.619-0.838-0.696 -1.604-0.361-5.096-1.811-5.096-1.811 2.32 0.361 3.483 0.674 5.305 0.059C58.257 82.256 57.318 80.972 57.318 80.972z" fill="#000000" stroke-width="none" opacity="1" stroke="none"/>
              </g>
            </g>
          </g>
          <g id="svga-group-eyes-right-move" transform="matrix(1,0,0,1,0,0)">
            <g id="svga-group-eyes-right" transform="matrix(1,0,0,1,0,0)">
              <g id="svga-group-eyesback-right">
                <path id="SvgjsPath3157" d="M138.048 84.523c0.506-2.285-5.191-3.973-12.711-3.051 -7.518 0.923-12.738 5.524-12.052 7.844 0.38 1.286 10.639 3.245 14.253 2.847C131.202 91.758 136.826 90.04 138.048 84.523z" fill="url(#SvgjsRadialGradient3158)" opacity="1"/>
              </g>
              <g id="svga-group-eyesiriswrapper-right" transform="matrix(1,0,0,1,0.75,-0.5)">
                <g id="svga-group-eyesiriscontrol-right" transform="matrix(1,0,0,1,0,0)">
                  <g id="svga-group-eyesiris-right" transform="matrix(1,0,0,1,0,0)">
                    <path id="SvgjsPath3227" d="M133.5 87c0 4.694-3.806 8.5-8.499 8.5 -4.694 0-8.501-3.806-8.501-8.5l0 0c0-4.694 3.807-8.5 8.501-8.5C129.694 78.499 133.5 82.305 133.5 87L133.5 87z" fill="#4d3623" stroke-width="none" opacity="1" stroke="none"/>
                    <path id="SvgjsPath3228" d="M124.048 78.595c-0.033 0.004-0.066 0.008-0.101 0.012 0.041 0.191 0.081 0.384 0.12 0.575C124.06 78.987 124.055 78.789 124.048 78.595zM124.066 79.18c0.099 2.793 0.262 5.282 0.732 6.183C125.047 84.377 124.625 81.92 124.066 79.18zM124.8 85.365c-0.061 0.236-0.153 0.397-0.294 0.452 -0.142 0.053-0.319-0.008-0.521-0.146 0.058 0.236 0.052 0.422-0.051 0.537 -0.102 0.114-0.285 0.142-0.527 0.11 0.16 0.184 0.242 0.353 0.206 0.5 -0.039 0.148-0.189 0.258-0.415 0.343 0.225 0.088 0.376 0.199 0.411 0.347 0.036 0.148-0.046 0.315-0.205 0.498 0.241-0.029 0.426 0.001 0.525 0.115 0.101 0.114 0.106 0.301 0.05 0.537 0.199-0.137 0.376-0.197 0.518-0.142 0.143 0.053 0.234 0.216 0.291 0.454 0.114-0.215 0.243-0.353 0.396-0.368 0.148-0.02 0.307 0.084 0.466 0.267 0.002-0.244 0.053-0.423 0.181-0.51 0.124-0.086 0.311-0.069 0.537 0.018 -0.11-0.216-0.148-0.398-0.078-0.534 0.071-0.135 0.245-0.207 0.487-0.235 -0.199-0.14-0.321-0.283-0.318-0.436 -0.001-0.153 0.119-0.296 0.321-0.434 -0.241-0.03-0.412-0.103-0.484-0.237 -0.07-0.135-0.031-0.319 0.081-0.535 -0.229 0.085-0.413 0.102-0.538 0.016 -0.126-0.086-0.177-0.267-0.178-0.51 -0.158 0.182-0.316 0.282-0.468 0.262C125.041 85.714 124.911 85.58 124.8 85.365zM125.66 85.471c0.679-0.758 1.446-3.13 2.224-5.813C126.674 82.174 125.662 84.453 125.66 85.471zM127.883 79.657c0.085-0.172 0.172-0.348 0.253-0.524 -0.03-0.011-0.06-0.024-0.09-0.037C127.992 79.284 127.938 79.472 127.883 79.657zM126.377 85.965c0.953-0.357 2.736-2.101 4.671-4.115C128.808 83.517 126.851 85.065 126.377 85.965zM131.048 81.851c0.142-0.106 0.287-0.213 0.433-0.318 -0.021-0.025-0.043-0.047-0.06-0.07C131.297 81.59 131.174 81.722 131.048 81.851zM126.777 86.738c1.01 0.125 3.399-0.591 6.052-1.475C130.068 85.698 127.617 86.159 126.777 86.738zM132.829 85.263c0.156-0.022 0.318-0.048 0.478-0.073 -0.007-0.026-0.013-0.054-0.02-0.081C133.135 85.16 132.979 85.212 132.829 85.263zM126.775 87.606c0.836 0.583 3.284 1.057 6.038 1.505C130.171 88.214 127.786 87.484 126.775 87.606zM132.813 89.111c0.135 0.047 0.271 0.095 0.404 0.138 0.007-0.024 0.013-0.047 0.018-0.071C133.098 89.158 132.954 89.135 132.813 89.111zM126.367 88.375c0.471 0.902 2.42 2.462 4.649 4.142C129.092 90.492 127.32 88.737 126.367 88.375zM131.018 92.514c0.083 0.087 0.17 0.179 0.253 0.268 0.014-0.017 0.027-0.031 0.043-0.046C131.215 92.662 131.113 92.587 131.018 92.514zM125.652 88.867c-0.004 1.019 0.995 3.302 2.191 5.827C127.079 92.006 126.327 89.628 125.652 88.867zM127.844 94.694c0.03 0.106 0.062 0.215 0.09 0.324 0.021-0.008 0.036-0.015 0.055-0.02C127.941 94.896 127.892 94.793 127.844 94.694zM124.788 88.968c-0.476 0.902-0.653 3.386-0.768 6.178C124.594 92.413 125.031 89.958 124.788 88.968zM124.021 95.146c-0.023 0.106-0.044 0.214-0.066 0.323 0.02 0.004 0.035 0.005 0.055 0.007C124.013 95.368 124.018 95.254 124.021 95.146zM123.979 88.657c-0.844 0.576-2.154 2.697-3.553 5.114C122.204 91.617 123.733 89.645 123.979 88.657zM120.427 93.771c-0.074 0.09-0.152 0.185-0.229 0.274 0.018 0.012 0.034 0.02 0.053 0.034C120.309 93.976 120.369 93.873 120.427 93.771zM123.405 88.006c-1.015 0.119-3.16 1.385-5.522 2.875C120.46 89.801 122.726 88.768 123.405 88.006zM117.883 90.884c-0.122 0.051-0.247 0.102-0.372 0.156 0.009 0.019 0.021 0.038 0.033 0.057C117.658 91.027 117.771 90.954 117.883 90.884zM123.198 87.161c-0.951-0.365-3.441-0.238-6.227-0.016C119.755 87.383 122.244 87.521 123.198 87.161zM116.972 87.145c-0.151-0.014-0.308-0.028-0.457-0.041 -0.001 0.027-0.003 0.053-0.001 0.08C116.669 87.169 116.822 87.156 116.972 87.145zM123.407 86.318c-0.67-0.763-2.932-1.809-5.499-2.905C120.259 84.915 122.397 86.196 123.407 86.318zM117.908 83.413c-0.147-0.095-0.297-0.189-0.446-0.285 -0.013 0.026-0.026 0.053-0.041 0.078C117.585 83.276 117.75 83.344 117.908 83.413zM123.985 85.67c-0.239-0.989-1.758-2.967-3.521-5.132C121.849 82.963 123.147 85.09 123.985 85.67zM120.465 80.538c-0.095-0.163-0.188-0.329-0.281-0.494 -0.026 0.018-0.055 0.037-0.079 0.054C120.224 80.245 120.348 80.393 120.465 80.538z" fill="url(#SvgjsRadialGradient3229)" opacity="1"/>
                    <path id="SvgjsPath3232" d="M126.255 78.622c-0.034-0.004-0.066-0.01-0.1-0.014 -0.011 0.196-0.022 0.393-0.034 0.586C126.164 79.004 126.211 78.812 126.255 78.622zM126.12 79.193c-0.627 2.724-1.114 5.17-0.892 6.162C125.724 84.467 125.95 81.984 126.12 79.193zM125.229 85.356c-0.119 0.212-0.25 0.344-0.401 0.36 -0.15 0.014-0.306-0.091-0.464-0.276 -0.006 0.243-0.06 0.421-0.188 0.505 -0.128 0.083-0.313 0.063-0.539-0.03 0.107 0.219 0.143 0.403 0.069 0.536 -0.075 0.133-0.249 0.201-0.489 0.224 0.194 0.144 0.312 0.289 0.308 0.441 -0.003 0.152-0.126 0.292-0.327 0.428 0.24 0.034 0.41 0.111 0.478 0.247 0.067 0.136 0.025 0.318-0.091 0.532 0.229-0.081 0.414-0.093 0.537-0.003 0.123 0.088 0.17 0.27 0.164 0.514 0.166-0.177 0.325-0.278 0.478-0.253 0.148 0.02 0.274 0.16 0.382 0.379 0.064-0.236 0.16-0.396 0.306-0.447 0.143-0.051 0.318 0.014 0.515 0.157 -0.051-0.237-0.041-0.423 0.063-0.536s0.29-0.136 0.532-0.102c-0.157-0.187-0.238-0.356-0.195-0.504 0.039-0.148 0.192-0.255 0.423-0.336 -0.226-0.091-0.372-0.206-0.407-0.354 -0.032-0.149 0.053-0.316 0.218-0.495 -0.243 0.023-0.427-0.009-0.524-0.125 -0.099-0.115-0.102-0.303-0.039-0.538 -0.201 0.134-0.38 0.19-0.521 0.132C125.37 85.756 125.281 85.593 125.229 85.356zM126.033 85.683c0.852-0.558 2.206-2.65 3.652-5.04C127.865 82.76 126.298 84.699 126.033 85.683zM129.685 80.641c0.126-0.145 0.255-0.292 0.38-0.44 -0.027-0.019-0.052-0.04-0.078-0.06C129.886 80.31 129.785 80.477 129.685 80.641zM126.597 86.345c1.013-0.099 3.187-1.322 5.577-2.767C129.578 84.609 127.287 85.598 126.597 86.345zM132.173 83.579c0.165-0.065 0.333-0.131 0.501-0.195 -0.014-0.029-0.029-0.056-0.04-0.083C132.481 83.392 132.328 83.487 132.173 83.579zM126.783 87.194c0.943 0.382 3.437 0.309 6.227 0.142C130.231 87.042 127.745 86.853 126.783 87.194zM133.01 87.336c0.158 0.019 0.32 0.036 0.48 0.053 0.001-0.027 0.002-0.055 0.003-0.083C133.332 87.316 133.168 87.326 133.01 87.336zM126.558 88.033c0.655 0.78 2.898 1.871 5.442 3.017C129.679 89.499 127.565 88.177 126.558 88.033zM132 91.049c0.117 0.08 0.236 0.161 0.354 0.238 0.013-0.021 0.024-0.042 0.035-0.063C132.262 91.168 132.129 91.109 132 91.049zM125.964 88.67c0.221 0.993 1.699 3.004 3.419 5.205C128.048 91.419 126.791 89.266 125.964 88.67zM129.384 93.872c0.059 0.106 0.117 0.217 0.176 0.325 0.018-0.013 0.034-0.023 0.053-0.034C129.536 94.065 129.458 93.967 129.384 93.872zM125.146 88.96c-0.267 0.982 0.107 3.447 0.608 6.195C125.711 92.361 125.601 89.87 125.146 88.96zM125.754 95.155c0.002 0.11 0.004 0.224 0.004 0.337 0.021-0.003 0.038-0.005 0.058-0.005C125.796 95.376 125.775 95.264 125.754 95.155zM124.285 88.834c-0.693 0.748-1.508 3.102-2.341 5.769C123.205 92.11 124.265 89.853 124.285 88.834zM121.944 94.603c-0.05 0.096-0.099 0.195-0.147 0.295 0.017 0.008 0.032 0.013 0.051 0.021C121.879 94.815 121.913 94.707 121.944 94.603zM123.584 88.324c-0.964 0.338-2.779 2.048-4.756 4.021C121.104 90.724 123.091 89.215 123.584 88.324zM118.828 92.345c-0.095 0.067-0.194 0.138-0.29 0.206 0.014 0.016 0.027 0.028 0.041 0.045C118.661 92.511 118.746 92.428 118.828 92.345zM123.197 87.546c-1.01-0.148-3.409 0.521-6.078 1.349C119.889 88.518 122.345 88.106 123.197 87.546zM117.119 88.897c-0.131 0.018-0.265 0.034-0.4 0.054 0.005 0.021 0.011 0.042 0.018 0.063C116.865 88.977 116.993 88.936 117.119 88.897zM123.217 86.677c-0.824-0.599-3.263-1.121-6.01-1.627C119.833 86 122.202 86.777 123.217 86.677zM117.207 85.05c-0.143-0.052-0.29-0.106-0.432-0.158 -0.008 0.026-0.016 0.051-0.021 0.077C116.907 84.995 117.06 85.022 117.207 85.05zM123.637 85.917c-0.45-0.911-2.363-2.506-4.561-4.23C120.959 83.747 122.693 85.538 123.637 85.917zM119.076 81.688c-0.118-0.13-0.236-0.26-0.355-0.391 -0.021 0.022-0.041 0.044-0.061 0.065C118.8 81.471 118.941 81.58 119.076 81.688zM124.363 85.44c0.024-1.017-0.93-3.321-2.073-5.868C122.999 82.273 123.704 84.663 124.363 85.44zM122.29 79.572c-0.049-0.182-0.096-0.366-0.144-0.55 -0.029 0.01-0.062 0.021-0.09 0.032C122.134 79.227 122.214 79.401 122.29 79.572z" fill="url(#SvgjsRadialGradient3233)" opacity="1"/>
                    <path id="SvgjsPath3236" d="M128.334 87c0 1.842-1.492 3.333-3.333 3.333s-3.335-1.492-3.335-3.333c0-1.841 1.494-3.334 3.335-3.334C126.844 83.666 128.334 85.159 128.334 87z" fill="#4d3623" stroke-width="none" opacity="1" stroke="none"/>
                    <path id="SvgjsPath3237" d="M128.334 87c0 1.842-1.492 3.333-3.333 3.333s-3.335-1.492-3.335-3.333c0-1.841 1.494-3.334 3.335-3.334C126.844 83.666 128.334 85.159 128.334 87z" fill="#000000" stroke-width="none" opacity="0.9"/>
                    <path id="SvgjsPath3238" d="M120.35 90.893c0.636-0.427 1.5-0.255 1.927 0.38 0.427 0.637 0.258 1.5-0.379 1.927 -0.638 0.429-1.5 0.258-1.927-0.378C119.544 92.185 119.713 91.32 120.35 90.893L120.35 90.893z" fill="url(#SvgjsLinearGradient3239)" opacity="0.5"/>
                    <path id="SvgjsPath3242" d="M127.635 86.536c-0.356 0.53-1.373 0.468-2.275-0.136 -0.903-0.605-1.346-1.526-0.991-2.055l0.001-0.001c0.354-0.53 1.372-0.469 2.274 0.137 0.903 0.604 1.346 1.524 0.992 2.054C127.635 86.536 127.635 86.536 127.635 86.536z" fill="url(#SvgjsLinearGradient3243)" opacity="0.5"/>
                    <path id="SvgjsPath3246" d="M131.682 85.121c-0.806 1.237-2.884 1.31-4.641 0.166 -1.756-1.145-2.527-3.075-1.722-4.311 0.806-1.235 2.884-1.31 4.641-0.166C131.715 81.956 132.485 83.887 131.682 85.121L131.682 85.121z" fill="url(#SvgjsLinearGradient3247)" opacity="0.75"/>
                  </g>
                </g>
              </g>
              <g id="svga-group-eyesfront-right">
                <path id="SvgjsPath3192" d="M126.5 63c-9.94 0-18 11.192-18 25 0 13.807 8.06 24.999 18 24.999s18-11.192 18-24.999C144.5 74.192 136.44 63 126.5 63zM127.538 92.163c-3.614 0.398-13.873-1.561-14.253-2.847 -0.687-2.32 4.534-6.921 12.052-7.844 7.52-0.922 13.217 0.767 12.711 3.051C136.826 90.04 131.202 91.758 127.538 92.163z" fill="#a97760" stroke-width="none" opacity="1" stroke="none"/>
                <path id="SvgjsPath3193" d="M127.538 92.163c-3.614 0.398-13.873-1.561-14.253-2.847 -0.687-2.32 4.534-6.921 12.052-7.844 6.46-0.792 11.563 0.345 12.556 2.128 -0.898-6.4-7.7-11.397-15.987-11.434 -8.911-0.037-16.148 5.676-16.172 12.765 -0.021 7.088 7.185 12.862 16.095 12.902 8.913 0.037 16.149-5.676 16.173-12.764 0-0.105-0.016-0.208-0.019-0.313C136.652 90.083 131.148 91.764 127.538 92.163z" fill="url(#SvgjsRadialGradient3194)" opacity="1"/>
                <path id="SvgjsPath3198" d="M138.048 84.523c0.506-2.285-5.191-3.973-12.711-3.051 -7.518 0.923-12.738 5.524-12.052 7.844 0.38 1.286 10.639 3.245 14.253 2.847C131.202 91.758 136.826 90.04 138.048 84.523z" fill="url(#SvgjsRadialGradient3199)" opacity="1"/>
                <path id="SvgjsPath3202" d="M137.651 79.417c-4.208-1.978-9.35-2.16-13.838-1.005 -2.404 0.561-4.965 1.285-7.063 2.638 -1.945 1.135-3.525 2.5-5.002 4.19 1.342-1.701 2.773-3.118 4.623-4.27 2.276-1.416 4.769-2.294 7.364-2.916C128.322 76.928 133.458 77.184 137.651 79.417z" fill="#7b3d21" stroke-width="none" opacity="1" stroke="none"/>
                <path id="SvgjsPath3203" d="M142.682 80.972c0 0-2.328 0.881-3.595 0.62 0.39-0.459 1.096-1.604 1.096-1.604s-1.853 0.551-3.151 0.032c-0.88-0.352-4.065-1-5.456-1.066 -1.687-0.082-5.073 0.125-6.735 0.424 -3.374 0.608-8.985 2.63-11.678 7.184 -0.255 0.572-1.407 0.921-1.407 0.921s1.02-0.215 1.149 0.042c0.282 0.561-1.298 2.016-1.496 2.197 0.161-0.145 1.289-1.135 1.722-0.967 0.061 0.022 0.137 0.388 0.155 0.482 -0.3-2.426 4.838-6.746 12.052-7.604 7.52-0.894 13.217 0.743 12.711 2.958 -1.222 5.348-6.846 7.013-10.51 7.405 -2.526 0.271-8.298-0.577-11.675-1.537l-1.011-0.317c1.999 1.009 7.524 2.195 9.767 2.403 0.744 0.07 2.24 0.104 2.986 0.085 5.949-0.158 10.16-3.179 11.729-7.26 0.125-0.328 0.494-0.619 0.838-0.696 1.604-0.361 5.096-1.811 5.096-1.811 -2.32 0.361-3.483 0.674-5.305 0.059C141.743 82.256 142.682 80.972 142.682 80.972z" fill="#000000" stroke-width="none" opacity="1" stroke="none"/>
              </g>
            </g>
          </g>
          <g id="svga-group-facehighlight-single">
            <path id="SvgjsPath2772" d="M140.204 113.007c0.035 22.275-17.995 40.365-40.273 40.396 -22.274 0.036-40.361-17.993-40.396-40.272C59.501 90.857 77.53 72.77 99.808 72.735 122.083 72.701 140.171 90.73 140.204 113.007z" fill="url(#SvgjsRadialGradient2773)" opacity="1"/>
            <path id="SvgjsPath2776" d="M135,55.999c0,19.329-15.671,35-35,35c-19.329,0-35-15.671-35-35s15.671-35,35-35C119.329,20.999,135,36.67,135,55.999z" fill="url(#SvgjsRadialGradient2777)" opacity="1"/>
          </g>
          <g id="svga-group-eyebrows-left-move" transform="matrix(1,0,0,1,0,0)">
            <g id="svga-group-eyebrows-left-rotate" transform="matrix(1,0,0,1,0,0)">
              <g id="svga-group-eyebrows-left" transform="matrix(1,0,0,1,0,0)">
                <path id="SvgjsPath3252" d="M54.351 74.996c9.743-15.115 36.491 5.148 38.018-1.191 0.299-1.271-0.407-2.015-1.564-2.492C77.184 65.807 59.156 61.18 54.351 74.996z" fill="#2a232b" stroke-width="none" opacity="1"/>
              </g>
            </g>
          </g>
          <g id="svga-group-eyebrows-right-move" transform="matrix(1,0,0,1,0,0)">
            <g id="svga-group-eyebrows-right-rotate" transform="matrix(1,0,0,1,0,0)">
              <g id="svga-group-eyebrows-right" transform="matrix(1,0,0,1,0,0)">
                <path id="SvgjsPath3253" d="M145.649 74.996c-9.743-15.115-36.491 5.148-38.018-1.191 -0.299-1.271 0.407-2.015 1.564-2.492C122.816 65.807 140.844 61.18 145.649 74.996z" fill="#2a232b" stroke-width="none" opacity="1"/>
              </g>
            </g>
          </g>
          <g id="svga-group-nose-single-move" transform="matrix(1,0,0,1,0,0)">
            <g id="svga-group-nose-single" transform="matrix(1,0,0,1,0,0)">
              <path id="SvgjsPath2999" d="M97.363 92.602c0 0 0.055 7.962-0.458 9.512 -1.129 3.405-6.123 11.297-5.49 13.486 0.985 3.403 5.817 3.652 8.259 3.771 2.338 0.115 7.091-0.055 7.857-2.267 0.312-0.9-0.361-3.197-0.361-3.197s-2.165 2.228-7.266 1.98c-1.456-0.07-3.824-1.5-3.851-3.517 -0.036-2.734 1.805-5.87 2.135-8.583C98.438 101.726 97.363 92.602 97.363 92.602z" fill="#9a6248" stroke-width="none" opacity="1" stroke="none"/>
              <path id="SvgjsPath3000" d="M104.209 117.032c0.881 0 1.119 0.234 1.119 0.522 0 0.29-0.274 0.735-1.119 0.522 -0.928-0.231-2.548-0.124-2.548-0.124S103.328 117.032 104.209 117.032zM95.8 117.032c-0.881 0.001-1.119 0.236-1.119 0.525 0 0.288 0.265 0.704 1.119 0.521 0.941-0.201 2.548-0.125 2.548-0.125S96.682 117.035 95.8 117.032zM107.169 113.906c0 0 1.22 1.384 0.966 2.847 -0.246 1.421-2.709 2.047-2.709 2.047s1.71-1.085 1.917-2.403C107.439 115.781 107.169 113.906 107.169 113.906zM92.12 112.482c0 0-0.89 1.938-0.632 3.117 0.467 2.13 3.032 2.982 3.032 2.982s-1.601-1.462-2.17-2.753C91.729 114.42 92.12 112.482 92.12 112.482z" fill="#7b3d21" stroke-width="none" opacity="1" stroke="none"/>
              <path id="SvgjsPath3001" d="M104.166 114.937c0.854-0.637 0.939-1 0.763-1.237 -0.176-0.238-0.688-0.389-1.403 0.379 -0.788 0.846-2.502 1.47-2.502 1.47S103.312 115.574 104.166 114.937z" fill="#b88e7b" stroke-width="none" opacity="1" stroke="none"/>
            </g>
          </g>
          <g id="svga-group-hair-front" transform="matrix(1,0,0,1,0,0)">
            <path id="SvgjsPath3331" d="M150.536 25.403c-4.741-3.492-102.496 0.66-106.053 6.026 -3.095 4.669-5.953 201.255-5.415 201.307 13.762 1.102 54.916 0.905 84.53 0.322 -20.37-0.815-65.039-2.604-65.73-2.647 -1.51-13.299 0.879-25.21 2.197-31.78 0.292-1.457 0.523-2.607 0.653-3.493l0.018-0.149c0.374-3.886-0.369-7.235-1.155-10.783 -1.063-4.802-2.164-9.768-0.535-16.956 2.272-9.979 0.651-16.863-0.652-22.394 -0.511-2.169-0.952-4.042-1.084-5.788 -0.321-4.254 1.54-6.744 3.694-9.627 3.362-4.498 5.296-13.562-0.242-21.273 -4.427-6.164-3.506-8.024-2-11.285 1.528-3.307 3.621-7.836 1.191-16.552 -1.792-6.433-4.245-15.242 12.881-25.936 5.585-3.49 11.217-5.638 16.186-7.532 6.306-2.405 14.805-9.398 17.373-13.863 1.129 10.719 8.307 21.317 13 26.186 6.438 6.678 11.522 11.953 8.896 31.045 -1.111 8.072 0.54 11.878 1.995 16.285 0.641 1.942 1.606 3.95 2.175 6.636 0.938 4.389-0.032 8.534-1.38 12.923 -1.183 3.852-1.258 7.804-1.194 12.326 0.868-2.639 3.764-7.495 4.222-10.647 1.211-8.33 2.671-54.157 2.562-59.365 8.608 7.931 10.412 19.654 8.529 27.097 -0.884 3.493-2.854 16.106-3.17 20.192 -0.634 8.184 0.318 6.299-0.072 11.659 -0.377 5.236-2.24 7.948-5.521 13.484 -7.595 12.969-4.483 20.459-1.474 27.701 1.122 2.703 2.283 5.498 2.88 8.653 1.168 6.055-1.128 14.71-3.349 23.079 -2.135 8.046-4.342 16.365-3.691 23.151 0.157 1.614 1.796 6.247 2.587 9.436 11.055-0.276 19.3-0.602 21.865-0.909C164.055 230.876 159.709 32.162 150.536 25.403z" fill="#2a232b" stroke-width="none" opacity="0.1"/>
            <path id="SvgjsPath3332" d="M169.869 60.508c-0.362-12.689-3.053-23.544-8.009-32.294 -1.234-6.369-3.748-14.487-12.301-20.789 -4.509-3.321-13.655-6.862-22.288-8.637 -11.658-10.772-12.372-1.202-24.682-6.167 -2.892-1.167-4.909-1.963-9.505 1.111C86.8-7.859 79.736-8.007 75.268-7.146c-4.864 0.936-11.252 4.118-15.943 7.938 -7.968 2.15-13.645 5.709-16.873 10.579 -2.887 4.356-4.261 9.144-4.094 14.279 -1.49 3.06-2.376 6.316-2.809 10.294 -2.715 3.779-5.582 8.563-7.648 12.626 -1.816 3.554-4.911 20.048-3.206 27.254 -11.978 21.314-3.928 31.087 0.975 48.8 -3.591 8.407-3.569 16.054 0.075 24.855 -4.106 16.166-8.669 18.491-4.531 58.299 2.25 21.647 1.324 22.279 1.324 28.127l0.099-0.1c11.194-0.084 16.572-3.733 22.877-2.95 0.961 0.058 9.621 0.832 9.902 0.86 79.66 6.379 73.197-1.353 117.21-2.088 -0.826-8.102-1.776-30.404-0.356-39.298 2.088-13.115 0.093-28.495-3.729-39.602 4.314-8.119 3.907-12.246 1.163-20.445 5.543-16.211 7.897-24.442 4.45-39.741C178 81.442 175.792 70.778 169.869 60.508zM144.449 111.603c-0.368 5.307 0.889 10.623 0.5 15.949 -0.439 6.104-2.762 9.407-5.924 14.784 -9.617 16.422-0.494 22.32 1.763 34.271 2.469 12.793-8.264 33.33-6.999 46.509 0.24 2.47 1.669 8.576 2.203 10.877 -20.207 2.284-69.317 0.086-80.78-0.753 -2.633-17.772 1.835-33.757 2.538-38.538 0.814-8.465-4.608-14.97-1.628-28.118 3.006-13.198-1.294-20.579-1.802-27.29 -0.995-13.187 15.039-13.541 3.982-29.412 -9.902-14.226 3.372-12.214-1.236-28.745 -1.813-6.509-4.848-17.403 14.181-29.285 15.132-9.456 29.464-9.046 35.386-20.671 6.172 32.455 28.681 22.744 23.63 59.46 -1.484 10.782 1.529 12.874 3.435 21.885 1.966 9.198-4.088 16.658-3.958 25.865 2.464-7.486 8.896-14.549 9.09-22.357 0.149-6.206-2.432-12.186-2.38-18.408 0.039-4.968 1.508-9.806 2.281-14.635 3.709-23.063-15.682-23.835-20.418-41.599l0.181-0.08c11.219 17.313 20.093 22.563 26.204 33.756C152.855 90.043 145.316 98.718 144.449 111.603z" fill="#2a232b" stroke-width="none" opacity="1"/>
            <path id="SvgjsPath3333" d="M143.389 232.876c-2.452 0.381-4.644 0.709-7.109 0.989 -2.531-12.35-3.045-13.858 2.05-31.18 7.57-25.69 4.73-26.74 0.65-38.74 -5.181-15.21 4.37-19.42 7.64-29.62 1.85-5.8 1.13-11.689 0.49-17.62 -1.48-13.91 6.319-22.229 2.01-35.6 -4.74-14.729-16.45-19.648-31.05-41.09 -0.447-1.921-0.756-3.948-0.994-5.991 12.929 20.478 35.727 30.946 36.127 46.41C153.484 91.333 147.356 114.1 150 129c1.61 9.078-7 15-9 24 -3 12 9 22 5 33C140.088 200.357 138.928 216.401 143.389 232.876zM48 58c-9 11 1 25-5 38 -6 11 6 25-1 38 -3 7 4.152 14.053 2 20 -9.725 26.87-4.821 52.515-4.118 78.772 2.261-0.43 3.779-0.542 5.427-0.478 0.711-14.813-4.411-25.97-4.76-32.6 -0.36-7.04 2.95-11.53 4.16-17.45 1.71-8.41-0.38-18.63 2.66-26.58 1.9-5.42-1.33-11.069-1.99-16.26 -0.88-6.85 2.81-13.13 2.82-17.51 -0.61-7.38-4.41-11.37-3.86-17.52 0.32-3.68 1.82-6.93 3.18-10.31 4.1-10.23-0.47-12.2-1.03-21.02 -1.134-17.688 28.974-36.711 52.436-41.572C78.902 29.774 58.916 43.446 48 58zM46.397 36c-8.96 9.083-8.372 19.86-9.284 32.735 -0.721 10.172-12.931 19.243-10.958 29.098 3.909 19.52 9.418 32.397 4.963 53.628C30.013 156.731 32.397 163 32.397 168c-3.14 9.376-3.573 18.985-3.567 29.406 -0.07 10.373 0.408 20.797 2.567 31.594 0.362 2.175 0.196 4.218-0.159 6.225 1.085-0.164 2.188-0.383 3.448-0.68 3.02-15.189-3.05-39.63-1.45-47.81 1.745-9.261 4.592-10.646 3.81-20.88 -0.4-4.93-1.25-11.351-1.31-15.92 -0.203-14.404 7.428-20.775 2.43-33.32 -1.01-2.54-2.12-5.03-3.12-7.58 -5.219-13.284 1.624-20.396 5.8-30.74 2.32-5.73 2.25-7.87 1.55-14.79 -0.86-8.55-2.01-20.78 20.57-35.22 13.107-8.382 25.148-8.831 34.88-8.774C76.992 15.055 59.202 23.021 46.397 36zM97.211 6.536c-7.054-1.657-14.23-2.682-21.512-2.08C57.487 5.947 38.816 16.979 37.113 36.63 45.702 11.883 69.947 0.867 97.211 6.536zM126.834 59.708c-5.874-6.638-20.763-20.441-17.904-36.563 -0.251 2.617-1.317 6.185-2.091 7.821 5.657 26.844 24.4 25.05 26.021 46.982C133.567 74.046 129.607 62.841 126.834 59.708zM101.876 33.946c0.041 0.02 0.083 0.035 0.124 0.054C101.959 33.98 101.917 33.965 101.876 33.946 84.761 44.678 55.85 46.235 51 70c-1.266 6.203 5.054 18.03 0 27 -3.958 7.024 4 17 4 23s-4 11-5 18c-1 5 2 9 3 14 1 6-3 12-2 17 4.173 33.465-7.631 24.573 0.82 63.868 0.959 0.086 2.033 0.173 3.259 0.257 -0.94-5.08-1.69-12.63-0.83-22.75 1.54-18.06 4.07-11.92 0.51-27.25 -2.9-12.489-0.23-14.09 0.31-22.02 0.5-7.36-1.8-13.96-2.73-18.4 -3.18-15.12 9.72-17.31 6.69-26.25 -0.85-2.5-2.52-4.67-3.95-6.85 -7.58-11.968 1.421-13.924 0.8-23.23 -0.46-7.12-7-16.73 5.86-28.91 17.35-16.43 39.143-11.955 46.267-28.633C106.397 30.294 103.656 32.83 101.876 33.946zM158 190c1-9-1.131-17.628-4.131-26.628 -2-10 6.6-15.637 8.115-25.099 1.807-11.278-6.729-20.634 0.034-36.93 7.657-18.449 3.6-35.793-8.482-43.848 -14.671-10.086-23.385-20.865-30.952-37.156 6.736 35.057 29.35 37.938 35.255 56.606 3.95 12.48-3.89 22.5-2.939 36.31 0.405 5.96 2.941 11.623 2.12 17.69 -1.49 10.87-12.12 17.31-9.79 30.95 1.029 6.05 3.39 11.72 3.92 17.88 0.83 9.51-0.96 19.1-0.15 29.01 0.68 8.32 2.12 6.311 0.061 22.931 2.061-0.275 7.131-0.378 9.207-0.4C157.498 217.629 155.476 203.462 158 190zM114.267 8.481c10.364 3.309 12.499 13.877 25.333 24.504 5.42 4.5 15.6 9.53 23.989 18.8C150.646 34.024 125.583 8.481 114.267 8.481zM118.217 4.263c10.112-0.064 16.552 1.334 26.813 7.022 6.78 3.76 11.77 8.8 15.439 14.44C157.241 15.567 137.471-1.315 118.217 4.263zM169.249 130.686c4.75-16.351 6.351-25.88 4.51-36.75C169.27 105.867 163.235 112.89 169.249 130.686zM35.299 37.855c-5.1 8.58-7.65 19.96-8.21 23.7 -0.6 4.08-2.06 8.23-1.4 12.31C36.633 54.878 34.126 54.672 35.299 37.855zM29 229c-10.555-46.603 5.569-64.086-1.815-77.539 -5.86 19.443-7.903 20.479-4.996 59.664 0.79 10.69 0.7 19.11 0.46 24.561 2.485-0.057 4.312-0.176 6.192-0.461C29.196 233.218 29.487 231.15 29 229zM25.959 125.936c-1.901 6.5-1.314 13.373 0.51 19.979C28.109 137.985 27.759 132.695 25.959 125.936zM171.339 179.025c-0.239-11.98-1.58-19.57-3.31-25.15 -3.13 5.67-6.88 11.181-5.88 17.811 0.37 2.439 1.16 4.75 1.67 7.149 1.76 8.311-1.98 13.41-0.58 26.7 0.524 4.947 2.555 9.557 1.95 25.931 4.36 0.118 5.382 0.02 6.93 0.02C167.447 194.645 171.56 190.19 171.339 179.025z" fill="#1b141c" stroke-width="none" opacity="1"/>
            <path id="SvgjsPath3334" d="M41.174 37.035c2.742-4.962 5.685-9.62 9.504-13.836C68.75 3.245 94.287 10.679 98.519 10.509c-2.453 0.099-17.337-2.904-31.718 2.782C52.353 19.005 46.163 28.773 41.174 37.035zM82.104 15.495c9.209-0.041 19.252 3.171 20.252 3.641 -1.345-0.632-11.848-4.331-19.82-4.332 -7.33-0.001-14.298 2.961-20.784 6.078C68.208 18.053 74.954 15.527 82.104 15.495zM94.503 24.398c0.243-0.031 6.921-0.762 7.033-0.548 -0.046-0.089-1.342 0.007-1.454 0.007C75.188 23.911 50.574 37.095 43.97 57.105 51.898 36.451 78.067 26.495 94.503 24.398zM85.715 29.512c-4.868 1.411-9.764 3.261-14.134 5.861 1.722-1.024 3.72-1.784 5.575-2.521 14.368-5.716 22.167-4.655 23.782-4.583C95.832 27.849 90.673 28.075 85.715 29.512zM55.795 57.449c7.657-10.578 30.801-16.698 42.709-23.107C85.168 40.917 64.906 44.861 55.795 57.449zM23.802 90.407c-1.925 6.5 1.442 17.037 3.641 23.509 -1.452-4.276-4.294-16.879-2.45-22.924 2.54-8.321 8.077-15.33 10.361-23.765C32.245 76.654 25.938 83.204 23.802 90.407zM49.345 135.376c-0.227 0.832-0.669 1.795-0.712 2.659 0.033-0.666 0.549-1.511 0.779-2.123 4.786-12.716 5.62-16.075-0.64-28.802C52.467 116.524 53.679 119.49 49.345 135.376zM37.69 168.502c-0.001 0.172 0.073 3.122 0.156 3.272 -0.137-0.247 0.005-0.952 0.01-1.22 0.255-13.385 6.896-18.12 1.553-32.456C43.457 152.001 37.798 153.163 37.69 168.502zM49.653 184.464c-0.634 5.103-3.229 12.69-3.403 22.732 -0.023 1.294 0.233 2.588 0.209 3.877 0.028-1.552-0.07-3.089 0.032-4.643 0.482-7.301 2.122-11.081 3.062-16.426 2-10.691 0.184-12.236-0.424-23.268C49.161 173.583 50.294 179.311 49.653 184.464zM40.77 114.267c2.006 7.65 1.53 8.484 1.664 12.785 -0.051-1.65 0.944-3.732-1.023-13.009 -4.891-23.038 3.681-14.839 1.697-37.635C44.065 99.736 34.9 91.875 40.77 114.267zM125.891 58.415c15.459 19.39 2.691 37.278 8.563 47.381 -4.495-7.73 3.611-22.904-2.03-38.349 -3.499-9.572-12.808-15.293-17.928-25.886 -2.552-5.281-4.697-10.585-5.044-16.489C109.978 41.711 122.734 54.458 125.891 58.415zM129.333 48.056c2.588 2.805 5.433 5.618 8.623 7.742 -1.244-0.828-2.352-1.974-3.421-3.006 -15.846-15.29-16.277-27.594-17.245-34.801C118.533 32.05 120.594 38.583 129.333 48.056zM134.563 34.623c9.546 12.754 41.372 29.817 34.61 53.113 0 0.001-2.097 6.627-2.097 6.627 4.98-11.852 5.456-20.782-3.651-33.489 -8.378-11.687-21.297-17.214-29.644-27.799 -1.334-1.69-2.464-3.507-3.701-5.264C131.491 30.155 132.922 32.431 134.563 34.623zM160.783 35.442c-4.209-14.69-21.029-26.19-38.988-26.627C141.068 10.293 157.798 25.022 160.783 35.442zM102.187 31.702c4.048-3.483 6.929-6.043 8.311-19.639C109.441 19.675 107.764 26.903 102.187 31.702zM164.052 138.794c-0.281 7.611-3.443 11.155-5.54 16.217 -4.702 11.349 0.976 19.192 2.015 28.62 0.008 0.071 0.301 3.063 0.243 3.104 0.022-0.017-0.018-0.352-0.019-0.381 -0.194-12.388-6.224-19.056-1.091-31.181 4.217-9.965 7.672-12.175 2.237-32.578C162.678 126.498 164.282 132.588 164.052 138.794zM144.194 166.221c4.157 11.405 3.104 10.781 3.585 13.183 -0.029-0.145-0.092-2.743-0.735-5.67 -1.496-6.817-4.767-12.746-3.954-20.787 0.792-7.821 6.467-13.167 6.969-20.287 0.159-2.253-0.13-4.347-0.534-6.555C152.103 144.283 136.115 144.075 144.194 166.221zM151.224 99.355c-0.246 1.197-0.356 2.542-0.758 3.696 0.989-2.848 1.554-5.983 2.193-8.922 3.32-15.236-0.084-20.154-9.51-32.352C151.327 73.808 155.731 77.462 151.224 99.355z" fill="#3a353a" stroke-width="none" opacity="1"/>
            <path id="SvgjsPath3335" d="M174.649 71.396c-1.21-4.07-2.811-7.67-4.681-10.89 -0.279-9.79-2.09-21.87-8.01-32.31 -1.32-6.81-3.939-14.66-12.34-20.85 -4.44-3.27-13.45-6.83-22.28-8.63 -6.33-5.85-8.89-5.88-14.489-4.94 -11.091 1.85-11.421-5.86-19.74-0.14 -6.2-1.57-13.29-1.76-17.86-0.88 -4.94 0.95-11.31 4.15-15.94 7.94 -0.01 0-0.01 0-0.01 0 -7.19 1.94-13.41 5.31-16.93 10.62 -3.32 5.01-4.25 9.98-4.1 14.29 -1.68 3.45-2.44 6.86-2.8 10.28 -3.09 4.3-5.94 9.27-7.57 12.47 -1.923 3.763-5.022 20.157-3.29 27.42 -1.72 3.06-3.26 6.03-4.22 8.93 -0.93 2.81-1.52 5.59-1.86 8.53 -0.59 5.27 0.36 10.87 2.01 15.87 2.12 6.41 3.84 11.26 5.04 15.479 -3.87 9.061-3.32 16.73 0.07 24.87 -0.76 2.99-1.76 6.351-3.02 10.25 -7.25 22.391 0.01 48.86-0.01 69.08 0 1.9-0.08 4.48-0.17 6.91 -0.01 0.07-0.01 0.14-0.01 0.21 0.07 0.01 0.13 0.01 0.2 0 4.06-0.03 6.17-0.24 9.56-0.96 0.09-0.02 0.18-0.04 0.28-0.06 1.15-0.25 2.46-0.561 4.04-0.931 4.12-0.97 5.87-1.189 8.76-1.02 0.07 0 0.15 0.01 0.23 0.02 2.14 0.13 4.93 0.46 9.7 0.84 0.07 0.011 0.13 0.011 0.2 0.021 3.24 0.26 7.38 0.55 12.83 0.81 6.13 0.261 12.24 0.7 18.37 1.021 10.01 0.52 20.029 0.84 30.05 0.49 6.38-0.221 12.91-0.631 19.41-1.41 0.12-0.01 0.24-0.03 0.37-0.04 2.92-0.36 5.83-0.78 8.72-1.311 2.06-0.37 3.82-0.659 5.35-0.89 0.16-0.02 0.311-0.04 0.46-0.06 6-0.851 8.65-0.7 13.65-0.641 0.18 0 0.37 0.01 0.56 0.01 1.9 0.011 4.131 0.011 6.98-0.06 0.19 0 0.38-0.01 0.58-0.01 -0.01-0.08-0.021-0.16-0.021-0.25 -1.149-13.17-1.54-31.67-0.35-39.13 1.79-11.24 0.66-22.971-2.06-33.99 -0.521-2.101-1.08-3.93-1.681-5.58 1.17-2.2 2.19-4.43 2.76-6.78 1.221-5.02-0.06-9.17-1.59-13.68 2.94-8.6 5.91-18.49 6.051-23.85 0.17-6.48-0.74-12.141-1.601-15.891C176.279 86.715 177.27 80.215 174.649 71.396zM27.089 61.555c0.56-3.74 3.11-15.12 8.21-23.7 -0.5 7.17 0.26 14.42-2.62 22.28 -1.74 4.77-4.46 9.34-6.99 13.73C25.029 69.785 26.489 65.635 27.089 61.555zM25.459 127.926c0.14-0.681 0.31-1.341 0.5-1.99 1.8 6.76 2.15 12.05 0.51 19.979C24.959 140.445 24.119 134.205 25.459 127.926zM113.27 235.035c-10.65 0.22-21.41-0.25-32.05-0.79 -6.38-0.319-12.75-0.54-19.13-0.76 -2.69-0.09-4.92-0.21-6.79-0.34 -2.69-17.61 1.98-34.561 2.55-38.43 0.82-8.521-4.61-14.961-1.63-28.11 3.02-13.26-1.29-20.58-1.8-27.32 -0.79-10.47 9-12.41 7.78-21.569 -0.83-6.33-7.67-10.351-7.67-16.9 0.9-6.27 5.1-8.33 3.23-17.38 -1.23-5.98-7.92-18.1 13.54-31.5 14.98-9.36 29.52-9.16 35.29-20.45 1.33 7.07 3.63 13.89 8.96 20.24 3.82 4.51 8.45 8.44 11.53 13.55 6.62 11.01 2.94 23.7 2.63 29.3 -0.359 6.38 2.601 11.88 3.891 17.97 1.329 6.221-1.101 11.99-2.79 17.87 -0.801 2.79-1.131 5.24-1.16 7.33 -0.021 0.42-0.011 0.82 0.01 1.2 0.07-0.2 0.13-0.4 0.2-0.6 2.92-8.19 8.88-14.63 9.069-22.311 0.15-6.24-2.43-12.18-2.38-18.41 0.04-4.97 1.5-9.75 2.28-14.62 3.42-21.26-12.75-23.67-19.05-37.72 -0.55-1.22-1-2.53-1.37-3.92 1.03 1.59 2.09 3.15 3.18 4.7 9.32 13.23 17.49 18.92 23.021 29.05 8.14 14.94 0.609 23.57-0.26 36.48 -0.37 5.34 0.89 10.62 0.5 15.949 -0.44 6.11-2.83 9.49-5.91 14.74 -8.48 14.48-2.551 20.44 1.149 31.681 0 0.01 0 0.01 0.011 0.02 0 0.01 0 0.02 0.01 0.04 0.06 0.29 0.399 1.64 0.58 2.6 2.47 12.801-8.271 33.25-7 46.5 0.189 1.95 1.149 6.391 2.18 10.78C130.929 234.445 124.789 234.806 113.27 235.035zM171.339 179.025c0.23 11.67-3.779 13.76 0.62 51.21 0.05 0.36 0.101 0.78 0.16 1.25 -0.48 0-0.95 0.01-1.42 0.02 -1.84 0.04-3.67 0.011-5.51-0.039 0.1-2.7 0.12-5.761 0.01-9.211 -0.37-11.609-1.271-10.21-1.96-16.72 -1.4-13.29 2.34-18.39 0.58-26.7 -0.51-2.399-1.3-4.71-1.67-7.149 -1-6.63 2.75-12.141 5.88-17.811C169.759 159.455 171.1 167.045 171.339 179.025zM168.069 146.136c-0.3 0.93-0.641 1.85-1.03 2.75 -0.13 0.33-0.28 0.67-0.43 1 -1.91 4.26-4.44 8.229-5.99 12.649 -2.75 7.811 0.18 13.36 0.98 16.62 1.52 6.19-0.32 12.65-0.351 18.9 -0.04 11 3.44 12.34 3.37 33.39 -4.53-0.13-9.07-0.33-13.56 0.271 2.06-16.62 0.619-14.61-0.061-22.931 -0.81-9.91 0.98-19.5 0.15-29.01 -0.53-6.16-2.891-11.83-3.92-17.88 -2.33-13.641 8.3-20.08 9.79-30.95 0.13-0.96 0.18-1.92 0.159-2.87 -0.09-4.99-1.939-9.82-2.279-14.82 -0.95-13.81 6.89-23.83 2.939-36.31 -6.029-19.06-29.489-21.64-35.67-58.84 3.47 25.44 14.351 33.64 24.71 45 20 21.96 3.63 30.33 5.391 51.55 0.47 5.57 2.88 11.29 1.52 16.89 -2.63 9.311-10.47 16.801-9.56 27.45 0.54 6.36 3.43 12.23 4.51 18.49 2.16 12.51-1.101 19.68 1.97 37.56 0.851 4.91 0.49 10.801-0.13 16.73 -6.11 0.89-9.729 1.57-14.3 2.09 -0.5-2.439-1-5-1.44-7.399 -1.46-7.98 1.261-16.2 3.49-23.78 7.57-25.69 4.73-26.74 0.65-38.74 -5.181-15.21 4.37-19.42 7.64-29.62 1.85-5.8 1.13-11.689 0.49-17.62 -1.48-13.91 6.319-22.229 2.01-35.6 -3.73-11.59-13.66-19.41-21.34-28.31 -3.51-4.06-6.7-8.36-9.71-12.78 -1.5-6.45-1.561-14.06-1.95-19.64 0.21 5.86-0.04 12.16 0.94 18.12 0.05 0.35 0.109 0.7 0.18 1.05 0.58 3.08 1.52 6.07 3.06 8.84 4.49 8.07 13.801 14.1 16.28 22.24 2.65 10-2.31 18.25-1.78 27.66 0.351 6.24 3.13 12.181 2.96 18.47 -0.17 6.2-5.109 12.65-7.8 20.061 0.75-7.42 5.58-14.46 5-22.16 -0.46-6.08-3.56-11.66-3.689-17.79 -0.12-5.9 4.8-18.29-1.62-30.31 -5.641-10.57-16.391-14.29-21.19-29.38 -0.649-2.04-1.18-4.12-1.62-6.21 0.771-1.63 1.37-3.5 1.771-5.66 0.22-1.21 0.39-2.52 0.479-3.93 -0.319 3.73-1.13 6.74-2.319 9.21 -0.091 0.17-0.17 0.34-0.25 0.5 -7.3 13.98-27.811 10.31-44.78 26.38 -12.86 12.18-6.32 21.79-5.86 28.91 0.08 1.2-0.02 3-0.2 3.81 -2.05 6.79-6.75 9.71-0.6 19.42 1.43 2.18 3.1 4.35 3.95 6.85 3.03 8.94-9.87 11.13-6.69 26.25 0.93 4.44 3.23 11.04 2.73 18.4 -0.54 7.93-3.21 9.53-0.31 22.02 3.56 15.33 1.03 9.19-0.51 27.25 -0.86 10.12-0.11 17.67 0.83 22.75 -4.84-0.33-7.34-0.72-9.52-0.819 0.37-4.88 0.21-11.96-1.82-21.521 -0.66-3.08-1.59-6.14-1.94-9.28 -0.97-8.659 3.67-13.3 4.8-20.64 1.32-8.6 0.35-18.29 2.66-23.939 2.54-6.2-0.1-10.631-1.05-16.011 -2.17-12.26 6.13-12.58 0.27-27.8 -2.74-7.11-2.45-9.54-0.31-15.15 1.21-3.2 2.41-6.25 2.91-9.66 1.23-8.52-9.8-15.96 4.03-32.5 12.27-14.69 33.52-22.52 44.06-24.38 -24.02 3.87-53.765 23.204-52.68 41.62 0.718 12.194 5.194 8.275 1.03 21.02 -1.131 3.463-2.86 6.63-3.18 10.31 -0.55 6.15 3.25 10.14 3.86 17.52 -0.01 4.38-3.7 10.66-2.82 17.51 0.66 5.19 3.89 10.84 1.99 16.26 -3.04 7.95-0.95 18.17-2.66 26.58 -1.21 5.92-4.52 10.41-4.16 17.45 0.16 3.03 1 5.96 1.76 8.88 2.81 10.771 3.25 18.51 3 23.72 -2.79-0.109-5.19 0.28-11.5 1.881 -0.43 0.109-0.84 0.21-1.23 0.3 2.96-13.15-0.74-34.23-0.48-44.141 0.15-5.68 3.55-12.09 4.53-17.199 1.13-5.94-1.18-16.721-0.53-25.051 0.68-8.58 2.6-11.8 3.97-17.83 2.89-12.81-4.81-18.869-6.25-28.049 -1.51-9.55 6.76-18.69 8.54-28.86 1.84-10.54-6.38-20.18 7.73-35.03 17.72-18.67 37.6-18.53 48.35-18.78 -10.2-0.09-23.39-0.51-37.87 8.75 -22.58 14.44-21.43 26.67-20.57 35.22 0.7 6.92 0.77 9.06-1.55 14.79 -2.14 5.3-4.97 9.74-6.53 14.59 -1.49 4.64-1.82 9.66 0.73 16.15 1 2.55 2.11 5.04 3.12 7.58 0.45 1.13 0.9 2.33 1.16 3.521 0.07 0.33 0.37 1.79 0.43 1.939 0.9 10.36-4.19 15.76-4.02 27.86 0.06 4.569 0.91 10.99 1.31 15.92 0.17 2.229 0.25 4.149 0.13 5.46 -0.46 4.89-2.83 9.53-3.94 15.42 -1.6 8.18 4.47 32.62 1.45 47.81 -3.44 0.811-5.72 1.051-9.64 1.141 0.24-5.45 0.33-13.87-0.46-24.561 -1.34-18.06-3.03-33.71 1.85-49.5 1.09-3.52 2.06-6.569 2.89-9.319 0.27-0.87 0.52-1.721 0.75-2.53 2.76-9.7 3.33-16.01-0.12-28.17 -0.06-0.23-0.13-0.47-0.2-0.71 -0.47-1.63-1.01-3.36-1.63-5.22 -4.55-13.67-7.18-21.67-0.22-36.021 0.26-0.55 0.54-1.11 0.84-1.68 0.17-0.33 0.34-0.66 0.52-0.99 3.78-7.04 8.31-14.3 9.43-22.38 0.96-6.91 0.15-13.47 1.02-19.95 0.06-0.51 0.14-1.02 0.23-1.53 0.25-1.39 0.59-2.78 1.05-4.17 0.16-0.47 0.33-0.94 0.52-1.41 0.96-2.44 2.34-4.87 4.32-7.32 7.68-9.49 20.29-14.79 32.26-15.77 11.01-0.91 21.78 1.89 32.25 4.99 -10.66-3.41-21.62-6.44-32.93-5.63 -7.45 0.52-15.12 2.74-21.75 6.57 -3.76 2.16-7.19 4.84-10.06 8.02 -1.62 1.79-2.91 3.56-3.94 5.32 0.54-4.66 2.35-9.17 5.52-12.66 2.55-2.82 6.34-5.05 10.81-6.74 0.42-0.16 0.85-0.32 1.29-0.47 13.39-4.65 32.04-4.78 41.79-1.59 2.5 0.82 4.86 1.79 7.25 2.86 -2.229-1.17-4.449-2.22-6.79-3.15 -3.11-1.24-7.39-2.23-12.24-2.82 -0.04-0.01-0.08-0.02-0.12-0.02 -7.49-0.9-16.34-0.83-24.35 0.82 2.52-1.47 5.18-2.7 7.48-3.53 7.47-2.51 13.74-2.78 20.5-2.07 0.48 0.06 0.97 0.12 1.46 0.19 0.3 0.04 0.6 0.09 0.9 0.13 4.33 0.67 8.91 1.97 11.68 5.44 -1.94-2.92-5.87-4.96-10.4-6.23 3.57-2.06 5.04-1.4 10.57 1.07 2.54 1.13 5.06 1.4 7.81 1.03 5.351-0.74 6.75-1.85 12.471 2.27 -8.311-1.38-16.07-1.02-19.28 2.82 -0.14 0.17-0.28 0.35-0.4 0.53 3.7-4.46 12.721-4.07 21.931-1.63 0.7 0.18 1.41 0.38 2.12 0.59 8.18 2.41 16.189 6.28 20.439 9.62 6.351 5.01 9.08 10.24 10.76 15.54 -3.67-5.64-8.659-10.68-15.439-14.44 -3.68-2.04-6.87-3.54-9.94-4.61 -0.08-0.03-0.17-0.06-0.25-0.08 -5.77-1.99-11.13-2.48-18.54-2.31 2.971 0.11 5.86 0.28 8.811 0.68 10.81 1.46 19.54 7.1 27.17 14.37 3.81 3.63 8.13 10.5 11.479 18.97 2.431 6.18 4.351 13.22 5.17 20.47 -1.149-1.81-2.39-3.5-3.689-5.07 -1.08-8.84-3.66-17.23-12.851-25.45 -3.68-3.3-7.829-5.56-12.22-7.75 4.25 2.46 8.33 5.1 11.71 8.72 6.63 7.1 9.91 15.51 11.71 22.56 -8.39-9.27-18.569-14.3-23.989-18.8 -8.9-7.37-13.9-15.68-18.7-20.12 -2.05-1.88-4.28-3.27-6.78-4.46 1.87 0.97 3.62 2.01 5.24 3.38 1.63 1.38 3.06 3.02 4.41 4.69 0.189 0.24 0.38 0.48 0.569 0.72 6.3 7.97 10.65 14.53 22.521 22.64 6.859 4.69 13.01 9.95 17.72 16.41 0.37 0.51 0.72 1.02 1.07 1.54 1.38 2.04 2.609 4.2 3.68 6.49 0.23 0.49 0.45 0.98 0.66 1.48 0.16 0.38 0.32 0.76 0.47 1.15 1.521 3.84 2.73 8.06 3.05 12.21 0.091 3.32-0.189 5.9-0.83 8.38 -0.05 0.22-0.109 0.44-0.17 0.66 -0.83 2.91-2.14 5.78-3.899 9.66 -10.221 22.42-3.7 29.99-1.07 38.59 0.13 0.43 0.25 0.86 0.36 1.3C168.539 140.235 168.759 142.915 168.069 146.136zM169.249 130.686c-1.439-4.26-2.86-8.94-2.49-15.03 0.511-8.49 4.37-14.73 7-21.72C175.6 104.805 173.999 114.335 169.249 130.686z" fill="#000000" stroke-width="none" opacity="1"/>
          </g>
          <g id="svga-group-glasses-single-move" transform="matrix(1,0,0,1,0,0)">
            <g id="svga-group-glasses-single" transform="matrix(1,0,0,1,0,0)">
              <path id="SvgjsPath3326" d="M100,18.13L100,18.13L100,18.13L100,18.13z" fill="#26120b" stroke-width="none" opacity="1"/>
            </g>
          </g>
        </g>
      </g>
    </g>
    <rect id="SvgjsRect1052" width="200" height="15" x="0" y="185" fill="#ecf0f1" opacity="0.5" style="display: none;"/>
    <text id="SvgjsText1053" font-family="Roboto, Helvetica, Arial, sans-serif" font-size="10px" text-anchor="start" font-weight="400" anchor="start" fill="#333333" x="57.75" y="182.6875" style="display: none;">
      <tspan id="SvgjsTspan1054" dy="13" x="57.75">Created on face.co</tspan>
    </text>
  </g>
</svg>
